<?xml version="1.0" encoding="utf-8" standalone="no"?>
<!DOCTYPE svg PUBLIC "-//W3C//DTD SVG 1.1//EN"
  "http://www.w3.org/Graphics/SVG/1.1/DTD/svg11.dtd">
<svg xmlns:xlink="http://www.w3.org/1999/xlink" width="576pt" height="432pt" viewBox="0 0 576 432" xmlns="http://www.w3.org/2000/svg" version="1.1">
 <metadata>
  <rdf:RDF xmlns:dc="http://purl.org/dc/elements/1.1/" xmlns:cc="http://creativecommons.org/ns#" xmlns:rdf="http://www.w3.org/1999/02/22-rdf-syntax-ns#">
   <cc:Work>
    <dc:type rdf:resource="http://purl.org/dc/dcmitype/StillImage"/>
    <dc:date>2025-01-15T14:05:44.517611</dc:date>
    <dc:format>image/svg+xml</dc:format>
    <dc:creator>
     <cc:Agent>
      <dc:title>Matplotlib v3.10.0, https://matplotlib.org/</dc:title>
     </cc:Agent>
    </dc:creator>
   </cc:Work>
  </rdf:RDF>
 </metadata>
 <defs>
  <style type="text/css">*{stroke-linejoin: round; stroke-linecap: butt}</style>
 </defs>
 <g id="figure_1">
  <g id="patch_1">
   <path d="M 0 432 
L 576 432 
L 576 0 
L 0 0 
z
" style="fill: #ffffff"/>
  </g>
  <g id="axes_1">
   <g id="patch_2">
    <path d="M 72 384.48 
L 518.4 384.48 
L 518.4 51.84 
L 72 51.84 
z
" style="fill: #ffffff"/>
   </g>
   <g id="matplotlib.axis_1">
    <g id="xtick_1">
     <g id="line2d_1">
      <path d="M 72 384.48 
L 72 51.84 
" clip-path="url(#pe4709aba7e)" style="fill: none; stroke-dasharray: 2.96,1.28; stroke-dashoffset: 0; stroke: #b0b0b0; stroke-opacity: 0.5; stroke-width: 0.8"/>
     </g>
     <g id="line2d_2">
      <defs>
       <path id="ma3b45671a3" d="M 0 0 
L 0 3.5 
" style="stroke: #000000; stroke-width: 0.8"/>
      </defs>
      <g>
       <use xlink:href="#ma3b45671a3" x="72" y="384.48" style="stroke: #000000; stroke-width: 0.8"/>
      </g>
     </g>
     <g id="text_1">
      <!-- 0.0 -->
      <g transform="translate(64.048438 399.078438) scale(0.1 -0.1)">
       <defs>
        <path id="DejaVuSans-30" d="M 2034 4250 
Q 1547 4250 1301 3770 
Q 1056 3291 1056 2328 
Q 1056 1369 1301 889 
Q 1547 409 2034 409 
Q 2525 409 2770 889 
Q 3016 1369 3016 2328 
Q 3016 3291 2770 3770 
Q 2525 4250 2034 4250 
z
M 2034 4750 
Q 2819 4750 3233 4129 
Q 3647 3509 3647 2328 
Q 3647 1150 3233 529 
Q 2819 -91 2034 -91 
Q 1250 -91 836 529 
Q 422 1150 422 2328 
Q 422 3509 836 4129 
Q 1250 4750 2034 4750 
z
" transform="scale(0.015625)"/>
        <path id="DejaVuSans-2e" d="M 684 794 
L 1344 794 
L 1344 0 
L 684 0 
L 684 794 
z
" transform="scale(0.015625)"/>
       </defs>
       <use xlink:href="#DejaVuSans-30"/>
       <use xlink:href="#DejaVuSans-2e" transform="translate(63.623047 0)"/>
       <use xlink:href="#DejaVuSans-30" transform="translate(95.410156 0)"/>
      </g>
     </g>
    </g>
    <g id="xtick_2">
     <g id="line2d_3">
      <path d="M 161.28 384.48 
L 161.28 51.84 
" clip-path="url(#pe4709aba7e)" style="fill: none; stroke-dasharray: 2.96,1.28; stroke-dashoffset: 0; stroke: #b0b0b0; stroke-opacity: 0.5; stroke-width: 0.8"/>
     </g>
     <g id="line2d_4">
      <g>
       <use xlink:href="#ma3b45671a3" x="161.28" y="384.48" style="stroke: #000000; stroke-width: 0.8"/>
      </g>
     </g>
     <g id="text_2">
      <!-- 0.2 -->
      <g transform="translate(153.328438 399.078438) scale(0.1 -0.1)">
       <defs>
        <path id="DejaVuSans-32" d="M 1228 531 
L 3431 531 
L 3431 0 
L 469 0 
L 469 531 
Q 828 903 1448 1529 
Q 2069 2156 2228 2338 
Q 2531 2678 2651 2914 
Q 2772 3150 2772 3378 
Q 2772 3750 2511 3984 
Q 2250 4219 1831 4219 
Q 1534 4219 1204 4116 
Q 875 4013 500 3803 
L 500 4441 
Q 881 4594 1212 4672 
Q 1544 4750 1819 4750 
Q 2544 4750 2975 4387 
Q 3406 4025 3406 3419 
Q 3406 3131 3298 2873 
Q 3191 2616 2906 2266 
Q 2828 2175 2409 1742 
Q 1991 1309 1228 531 
z
" transform="scale(0.015625)"/>
       </defs>
       <use xlink:href="#DejaVuSans-30"/>
       <use xlink:href="#DejaVuSans-2e" transform="translate(63.623047 0)"/>
       <use xlink:href="#DejaVuSans-32" transform="translate(95.410156 0)"/>
      </g>
     </g>
    </g>
    <g id="xtick_3">
     <g id="line2d_5">
      <path d="M 250.56 384.48 
L 250.56 51.84 
" clip-path="url(#pe4709aba7e)" style="fill: none; stroke-dasharray: 2.96,1.28; stroke-dashoffset: 0; stroke: #b0b0b0; stroke-opacity: 0.5; stroke-width: 0.8"/>
     </g>
     <g id="line2d_6">
      <g>
       <use xlink:href="#ma3b45671a3" x="250.56" y="384.48" style="stroke: #000000; stroke-width: 0.8"/>
      </g>
     </g>
     <g id="text_3">
      <!-- 0.4 -->
      <g transform="translate(242.608438 399.078438) scale(0.1 -0.1)">
       <defs>
        <path id="DejaVuSans-34" d="M 2419 4116 
L 825 1625 
L 2419 1625 
L 2419 4116 
z
M 2253 4666 
L 3047 4666 
L 3047 1625 
L 3713 1625 
L 3713 1100 
L 3047 1100 
L 3047 0 
L 2419 0 
L 2419 1100 
L 313 1100 
L 313 1709 
L 2253 4666 
z
" transform="scale(0.015625)"/>
       </defs>
       <use xlink:href="#DejaVuSans-30"/>
       <use xlink:href="#DejaVuSans-2e" transform="translate(63.623047 0)"/>
       <use xlink:href="#DejaVuSans-34" transform="translate(95.410156 0)"/>
      </g>
     </g>
    </g>
    <g id="xtick_4">
     <g id="line2d_7">
      <path d="M 339.84 384.48 
L 339.84 51.84 
" clip-path="url(#pe4709aba7e)" style="fill: none; stroke-dasharray: 2.96,1.28; stroke-dashoffset: 0; stroke: #b0b0b0; stroke-opacity: 0.5; stroke-width: 0.8"/>
     </g>
     <g id="line2d_8">
      <g>
       <use xlink:href="#ma3b45671a3" x="339.84" y="384.48" style="stroke: #000000; stroke-width: 0.8"/>
      </g>
     </g>
     <g id="text_4">
      <!-- 0.6 -->
      <g transform="translate(331.888438 399.078438) scale(0.1 -0.1)">
       <defs>
        <path id="DejaVuSans-36" d="M 2113 2584 
Q 1688 2584 1439 2293 
Q 1191 2003 1191 1497 
Q 1191 994 1439 701 
Q 1688 409 2113 409 
Q 2538 409 2786 701 
Q 3034 994 3034 1497 
Q 3034 2003 2786 2293 
Q 2538 2584 2113 2584 
z
M 3366 4563 
L 3366 3988 
Q 3128 4100 2886 4159 
Q 2644 4219 2406 4219 
Q 1781 4219 1451 3797 
Q 1122 3375 1075 2522 
Q 1259 2794 1537 2939 
Q 1816 3084 2150 3084 
Q 2853 3084 3261 2657 
Q 3669 2231 3669 1497 
Q 3669 778 3244 343 
Q 2819 -91 2113 -91 
Q 1303 -91 875 529 
Q 447 1150 447 2328 
Q 447 3434 972 4092 
Q 1497 4750 2381 4750 
Q 2619 4750 2861 4703 
Q 3103 4656 3366 4563 
z
" transform="scale(0.015625)"/>
       </defs>
       <use xlink:href="#DejaVuSans-30"/>
       <use xlink:href="#DejaVuSans-2e" transform="translate(63.623047 0)"/>
       <use xlink:href="#DejaVuSans-36" transform="translate(95.410156 0)"/>
      </g>
     </g>
    </g>
    <g id="xtick_5">
     <g id="line2d_9">
      <path d="M 429.12 384.48 
L 429.12 51.84 
" clip-path="url(#pe4709aba7e)" style="fill: none; stroke-dasharray: 2.96,1.28; stroke-dashoffset: 0; stroke: #b0b0b0; stroke-opacity: 0.5; stroke-width: 0.8"/>
     </g>
     <g id="line2d_10">
      <g>
       <use xlink:href="#ma3b45671a3" x="429.12" y="384.48" style="stroke: #000000; stroke-width: 0.8"/>
      </g>
     </g>
     <g id="text_5">
      <!-- 0.8 -->
      <g transform="translate(421.168437 399.078438) scale(0.1 -0.1)">
       <defs>
        <path id="DejaVuSans-38" d="M 2034 2216 
Q 1584 2216 1326 1975 
Q 1069 1734 1069 1313 
Q 1069 891 1326 650 
Q 1584 409 2034 409 
Q 2484 409 2743 651 
Q 3003 894 3003 1313 
Q 3003 1734 2745 1975 
Q 2488 2216 2034 2216 
z
M 1403 2484 
Q 997 2584 770 2862 
Q 544 3141 544 3541 
Q 544 4100 942 4425 
Q 1341 4750 2034 4750 
Q 2731 4750 3128 4425 
Q 3525 4100 3525 3541 
Q 3525 3141 3298 2862 
Q 3072 2584 2669 2484 
Q 3125 2378 3379 2068 
Q 3634 1759 3634 1313 
Q 3634 634 3220 271 
Q 2806 -91 2034 -91 
Q 1263 -91 848 271 
Q 434 634 434 1313 
Q 434 1759 690 2068 
Q 947 2378 1403 2484 
z
M 1172 3481 
Q 1172 3119 1398 2916 
Q 1625 2713 2034 2713 
Q 2441 2713 2670 2916 
Q 2900 3119 2900 3481 
Q 2900 3844 2670 4047 
Q 2441 4250 2034 4250 
Q 1625 4250 1398 4047 
Q 1172 3844 1172 3481 
z
" transform="scale(0.015625)"/>
       </defs>
       <use xlink:href="#DejaVuSans-30"/>
       <use xlink:href="#DejaVuSans-2e" transform="translate(63.623047 0)"/>
       <use xlink:href="#DejaVuSans-38" transform="translate(95.410156 0)"/>
      </g>
     </g>
    </g>
    <g id="xtick_6">
     <g id="line2d_11">
      <path d="M 518.4 384.48 
L 518.4 51.84 
" clip-path="url(#pe4709aba7e)" style="fill: none; stroke-dasharray: 2.96,1.28; stroke-dashoffset: 0; stroke: #b0b0b0; stroke-opacity: 0.5; stroke-width: 0.8"/>
     </g>
     <g id="line2d_12">
      <g>
       <use xlink:href="#ma3b45671a3" x="518.4" y="384.48" style="stroke: #000000; stroke-width: 0.8"/>
      </g>
     </g>
     <g id="text_6">
      <!-- 1.0 -->
      <g transform="translate(510.448437 399.078438) scale(0.1 -0.1)">
       <defs>
        <path id="DejaVuSans-31" d="M 794 531 
L 1825 531 
L 1825 4091 
L 703 3866 
L 703 4441 
L 1819 4666 
L 2450 4666 
L 2450 531 
L 3481 531 
L 3481 0 
L 794 0 
L 794 531 
z
" transform="scale(0.015625)"/>
       </defs>
       <use xlink:href="#DejaVuSans-31"/>
       <use xlink:href="#DejaVuSans-2e" transform="translate(63.623047 0)"/>
       <use xlink:href="#DejaVuSans-30" transform="translate(95.410156 0)"/>
      </g>
     </g>
    </g>
    <g id="xtick_7">
     <g id="line2d_13">
      <defs>
       <path id="mf20871112c" d="M 0 0 
L 0 2 
" style="stroke: #000000; stroke-width: 0.6"/>
      </defs>
      <g>
       <use xlink:href="#mf20871112c" x="94.32" y="384.48" style="stroke: #000000; stroke-width: 0.6"/>
      </g>
     </g>
    </g>
    <g id="xtick_8">
     <g id="line2d_14">
      <g>
       <use xlink:href="#mf20871112c" x="116.64" y="384.48" style="stroke: #000000; stroke-width: 0.6"/>
      </g>
     </g>
    </g>
    <g id="xtick_9">
     <g id="line2d_15">
      <g>
       <use xlink:href="#mf20871112c" x="138.96" y="384.48" style="stroke: #000000; stroke-width: 0.6"/>
      </g>
     </g>
    </g>
    <g id="xtick_10">
     <g id="line2d_16">
      <g>
       <use xlink:href="#mf20871112c" x="183.6" y="384.48" style="stroke: #000000; stroke-width: 0.6"/>
      </g>
     </g>
    </g>
    <g id="xtick_11">
     <g id="line2d_17">
      <g>
       <use xlink:href="#mf20871112c" x="205.92" y="384.48" style="stroke: #000000; stroke-width: 0.6"/>
      </g>
     </g>
    </g>
    <g id="xtick_12">
     <g id="line2d_18">
      <g>
       <use xlink:href="#mf20871112c" x="228.24" y="384.48" style="stroke: #000000; stroke-width: 0.6"/>
      </g>
     </g>
    </g>
    <g id="xtick_13">
     <g id="line2d_19">
      <g>
       <use xlink:href="#mf20871112c" x="272.88" y="384.48" style="stroke: #000000; stroke-width: 0.6"/>
      </g>
     </g>
    </g>
    <g id="xtick_14">
     <g id="line2d_20">
      <g>
       <use xlink:href="#mf20871112c" x="295.2" y="384.48" style="stroke: #000000; stroke-width: 0.6"/>
      </g>
     </g>
    </g>
    <g id="xtick_15">
     <g id="line2d_21">
      <g>
       <use xlink:href="#mf20871112c" x="317.52" y="384.48" style="stroke: #000000; stroke-width: 0.6"/>
      </g>
     </g>
    </g>
    <g id="xtick_16">
     <g id="line2d_22">
      <g>
       <use xlink:href="#mf20871112c" x="362.16" y="384.48" style="stroke: #000000; stroke-width: 0.6"/>
      </g>
     </g>
    </g>
    <g id="xtick_17">
     <g id="line2d_23">
      <g>
       <use xlink:href="#mf20871112c" x="384.48" y="384.48" style="stroke: #000000; stroke-width: 0.6"/>
      </g>
     </g>
    </g>
    <g id="xtick_18">
     <g id="line2d_24">
      <g>
       <use xlink:href="#mf20871112c" x="406.8" y="384.48" style="stroke: #000000; stroke-width: 0.6"/>
      </g>
     </g>
    </g>
    <g id="xtick_19">
     <g id="line2d_25">
      <g>
       <use xlink:href="#mf20871112c" x="451.44" y="384.48" style="stroke: #000000; stroke-width: 0.6"/>
      </g>
     </g>
    </g>
    <g id="xtick_20">
     <g id="line2d_26">
      <g>
       <use xlink:href="#mf20871112c" x="473.76" y="384.48" style="stroke: #000000; stroke-width: 0.6"/>
      </g>
     </g>
    </g>
    <g id="xtick_21">
     <g id="line2d_27">
      <g>
       <use xlink:href="#mf20871112c" x="496.08" y="384.48" style="stroke: #000000; stroke-width: 0.6"/>
      </g>
     </g>
    </g>
    <g id="text_7">
     <!-- Distance -->
     <g transform="translate(273.3375 412.756563) scale(0.1 -0.1)">
      <defs>
       <path id="DejaVuSans-44" d="M 1259 4147 
L 1259 519 
L 2022 519 
Q 2988 519 3436 956 
Q 3884 1394 3884 2338 
Q 3884 3275 3436 3711 
Q 2988 4147 2022 4147 
L 1259 4147 
z
M 628 4666 
L 1925 4666 
Q 3281 4666 3915 4102 
Q 4550 3538 4550 2338 
Q 4550 1131 3912 565 
Q 3275 0 1925 0 
L 628 0 
L 628 4666 
z
" transform="scale(0.015625)"/>
       <path id="DejaVuSans-69" d="M 603 3500 
L 1178 3500 
L 1178 0 
L 603 0 
L 603 3500 
z
M 603 4863 
L 1178 4863 
L 1178 4134 
L 603 4134 
L 603 4863 
z
" transform="scale(0.015625)"/>
       <path id="DejaVuSans-73" d="M 2834 3397 
L 2834 2853 
Q 2591 2978 2328 3040 
Q 2066 3103 1784 3103 
Q 1356 3103 1142 2972 
Q 928 2841 928 2578 
Q 928 2378 1081 2264 
Q 1234 2150 1697 2047 
L 1894 2003 
Q 2506 1872 2764 1633 
Q 3022 1394 3022 966 
Q 3022 478 2636 193 
Q 2250 -91 1575 -91 
Q 1294 -91 989 -36 
Q 684 19 347 128 
L 347 722 
Q 666 556 975 473 
Q 1284 391 1588 391 
Q 1994 391 2212 530 
Q 2431 669 2431 922 
Q 2431 1156 2273 1281 
Q 2116 1406 1581 1522 
L 1381 1569 
Q 847 1681 609 1914 
Q 372 2147 372 2553 
Q 372 3047 722 3315 
Q 1072 3584 1716 3584 
Q 2034 3584 2315 3537 
Q 2597 3491 2834 3397 
z
" transform="scale(0.015625)"/>
       <path id="DejaVuSans-74" d="M 1172 4494 
L 1172 3500 
L 2356 3500 
L 2356 3053 
L 1172 3053 
L 1172 1153 
Q 1172 725 1289 603 
Q 1406 481 1766 481 
L 2356 481 
L 2356 0 
L 1766 0 
Q 1100 0 847 248 
Q 594 497 594 1153 
L 594 3053 
L 172 3053 
L 172 3500 
L 594 3500 
L 594 4494 
L 1172 4494 
z
" transform="scale(0.015625)"/>
       <path id="DejaVuSans-61" d="M 2194 1759 
Q 1497 1759 1228 1600 
Q 959 1441 959 1056 
Q 959 750 1161 570 
Q 1363 391 1709 391 
Q 2188 391 2477 730 
Q 2766 1069 2766 1631 
L 2766 1759 
L 2194 1759 
z
M 3341 1997 
L 3341 0 
L 2766 0 
L 2766 531 
Q 2569 213 2275 61 
Q 1981 -91 1556 -91 
Q 1019 -91 701 211 
Q 384 513 384 1019 
Q 384 1609 779 1909 
Q 1175 2209 1959 2209 
L 2766 2209 
L 2766 2266 
Q 2766 2663 2505 2880 
Q 2244 3097 1772 3097 
Q 1472 3097 1187 3025 
Q 903 2953 641 2809 
L 641 3341 
Q 956 3463 1253 3523 
Q 1550 3584 1831 3584 
Q 2591 3584 2966 3190 
Q 3341 2797 3341 1997 
z
" transform="scale(0.015625)"/>
       <path id="DejaVuSans-6e" d="M 3513 2113 
L 3513 0 
L 2938 0 
L 2938 2094 
Q 2938 2591 2744 2837 
Q 2550 3084 2163 3084 
Q 1697 3084 1428 2787 
Q 1159 2491 1159 1978 
L 1159 0 
L 581 0 
L 581 3500 
L 1159 3500 
L 1159 2956 
Q 1366 3272 1645 3428 
Q 1925 3584 2291 3584 
Q 2894 3584 3203 3211 
Q 3513 2838 3513 2113 
z
" transform="scale(0.015625)"/>
       <path id="DejaVuSans-63" d="M 3122 3366 
L 3122 2828 
Q 2878 2963 2633 3030 
Q 2388 3097 2138 3097 
Q 1578 3097 1268 2742 
Q 959 2388 959 1747 
Q 959 1106 1268 751 
Q 1578 397 2138 397 
Q 2388 397 2633 464 
Q 2878 531 3122 666 
L 3122 134 
Q 2881 22 2623 -34 
Q 2366 -91 2075 -91 
Q 1284 -91 818 406 
Q 353 903 353 1747 
Q 353 2603 823 3093 
Q 1294 3584 2113 3584 
Q 2378 3584 2631 3529 
Q 2884 3475 3122 3366 
z
" transform="scale(0.015625)"/>
       <path id="DejaVuSans-65" d="M 3597 1894 
L 3597 1613 
L 953 1613 
Q 991 1019 1311 708 
Q 1631 397 2203 397 
Q 2534 397 2845 478 
Q 3156 559 3463 722 
L 3463 178 
Q 3153 47 2828 -22 
Q 2503 -91 2169 -91 
Q 1331 -91 842 396 
Q 353 884 353 1716 
Q 353 2575 817 3079 
Q 1281 3584 2069 3584 
Q 2775 3584 3186 3129 
Q 3597 2675 3597 1894 
z
M 3022 2063 
Q 3016 2534 2758 2815 
Q 2500 3097 2075 3097 
Q 1594 3097 1305 2825 
Q 1016 2553 972 2059 
L 3022 2063 
z
" transform="scale(0.015625)"/>
      </defs>
      <use xlink:href="#DejaVuSans-44"/>
      <use xlink:href="#DejaVuSans-69" transform="translate(77.001953 0)"/>
      <use xlink:href="#DejaVuSans-73" transform="translate(104.785156 0)"/>
      <use xlink:href="#DejaVuSans-74" transform="translate(156.884766 0)"/>
      <use xlink:href="#DejaVuSans-61" transform="translate(196.09375 0)"/>
      <use xlink:href="#DejaVuSans-6e" transform="translate(257.373047 0)"/>
      <use xlink:href="#DejaVuSans-63" transform="translate(320.751953 0)"/>
      <use xlink:href="#DejaVuSans-65" transform="translate(375.732422 0)"/>
     </g>
    </g>
   </g>
   <g id="matplotlib.axis_2">
    <g id="ytick_1">
     <g id="line2d_28">
      <path d="M 72 384.48 
L 518.4 384.48 
" clip-path="url(#pe4709aba7e)" style="fill: none; stroke-dasharray: 2.96,1.28; stroke-dashoffset: 0; stroke: #b0b0b0; stroke-opacity: 0.5; stroke-width: 0.8"/>
     </g>
     <g id="line2d_29">
      <defs>
       <path id="mecb305c265" d="M 0 0 
L -3.5 0 
" style="stroke: #000000; stroke-width: 0.8"/>
      </defs>
      <g>
       <use xlink:href="#mecb305c265" x="72" y="384.48" style="stroke: #000000; stroke-width: 0.8"/>
      </g>
     </g>
     <g id="text_8">
      <!-- 0.0 -->
      <g transform="translate(49.096875 388.279219) scale(0.1 -0.1)">
       <use xlink:href="#DejaVuSans-30"/>
       <use xlink:href="#DejaVuSans-2e" transform="translate(63.623047 0)"/>
       <use xlink:href="#DejaVuSans-30" transform="translate(95.410156 0)"/>
      </g>
     </g>
    </g>
    <g id="ytick_2">
     <g id="line2d_30">
      <path d="M 72 320.816718 
L 518.4 320.816718 
" clip-path="url(#pe4709aba7e)" style="fill: none; stroke-dasharray: 2.96,1.28; stroke-dashoffset: 0; stroke: #b0b0b0; stroke-opacity: 0.5; stroke-width: 0.8"/>
     </g>
     <g id="line2d_31">
      <g>
       <use xlink:href="#mecb305c265" x="72" y="320.816718" style="stroke: #000000; stroke-width: 0.8"/>
      </g>
     </g>
     <g id="text_9">
      <!-- 0.2 -->
      <g transform="translate(49.096875 324.615936) scale(0.1 -0.1)">
       <use xlink:href="#DejaVuSans-30"/>
       <use xlink:href="#DejaVuSans-2e" transform="translate(63.623047 0)"/>
       <use xlink:href="#DejaVuSans-32" transform="translate(95.410156 0)"/>
      </g>
     </g>
    </g>
    <g id="ytick_3">
     <g id="line2d_32">
      <path d="M 72 257.153435 
L 518.4 257.153435 
" clip-path="url(#pe4709aba7e)" style="fill: none; stroke-dasharray: 2.96,1.28; stroke-dashoffset: 0; stroke: #b0b0b0; stroke-opacity: 0.5; stroke-width: 0.8"/>
     </g>
     <g id="line2d_33">
      <g>
       <use xlink:href="#mecb305c265" x="72" y="257.153435" style="stroke: #000000; stroke-width: 0.8"/>
      </g>
     </g>
     <g id="text_10">
      <!-- 0.4 -->
      <g transform="translate(49.096875 260.952654) scale(0.1 -0.1)">
       <use xlink:href="#DejaVuSans-30"/>
       <use xlink:href="#DejaVuSans-2e" transform="translate(63.623047 0)"/>
       <use xlink:href="#DejaVuSans-34" transform="translate(95.410156 0)"/>
      </g>
     </g>
    </g>
    <g id="ytick_4">
     <g id="line2d_34">
      <path d="M 72 193.490153 
L 518.4 193.490153 
" clip-path="url(#pe4709aba7e)" style="fill: none; stroke-dasharray: 2.96,1.28; stroke-dashoffset: 0; stroke: #b0b0b0; stroke-opacity: 0.5; stroke-width: 0.8"/>
     </g>
     <g id="line2d_35">
      <g>
       <use xlink:href="#mecb305c265" x="72" y="193.490153" style="stroke: #000000; stroke-width: 0.8"/>
      </g>
     </g>
     <g id="text_11">
      <!-- 0.6 -->
      <g transform="translate(49.096875 197.289372) scale(0.1 -0.1)">
       <use xlink:href="#DejaVuSans-30"/>
       <use xlink:href="#DejaVuSans-2e" transform="translate(63.623047 0)"/>
       <use xlink:href="#DejaVuSans-36" transform="translate(95.410156 0)"/>
      </g>
     </g>
    </g>
    <g id="ytick_5">
     <g id="line2d_36">
      <path d="M 72 129.826871 
L 518.4 129.826871 
" clip-path="url(#pe4709aba7e)" style="fill: none; stroke-dasharray: 2.96,1.28; stroke-dashoffset: 0; stroke: #b0b0b0; stroke-opacity: 0.5; stroke-width: 0.8"/>
     </g>
     <g id="line2d_37">
      <g>
       <use xlink:href="#mecb305c265" x="72" y="129.826871" style="stroke: #000000; stroke-width: 0.8"/>
      </g>
     </g>
     <g id="text_12">
      <!-- 0.8 -->
      <g transform="translate(49.096875 133.626089) scale(0.1 -0.1)">
       <use xlink:href="#DejaVuSans-30"/>
       <use xlink:href="#DejaVuSans-2e" transform="translate(63.623047 0)"/>
       <use xlink:href="#DejaVuSans-38" transform="translate(95.410156 0)"/>
      </g>
     </g>
    </g>
    <g id="ytick_6">
     <g id="line2d_38">
      <path d="M 72 66.163588 
L 518.4 66.163588 
" clip-path="url(#pe4709aba7e)" style="fill: none; stroke-dasharray: 2.96,1.28; stroke-dashoffset: 0; stroke: #b0b0b0; stroke-opacity: 0.5; stroke-width: 0.8"/>
     </g>
     <g id="line2d_39">
      <g>
       <use xlink:href="#mecb305c265" x="72" y="66.163588" style="stroke: #000000; stroke-width: 0.8"/>
      </g>
     </g>
     <g id="text_13">
      <!-- 1.0 -->
      <g transform="translate(49.096875 69.962807) scale(0.1 -0.1)">
       <use xlink:href="#DejaVuSans-31"/>
       <use xlink:href="#DejaVuSans-2e" transform="translate(63.623047 0)"/>
       <use xlink:href="#DejaVuSans-30" transform="translate(95.410156 0)"/>
      </g>
     </g>
    </g>
    <g id="ytick_7">
     <g id="line2d_40">
      <defs>
       <path id="m170d616b90" d="M 0 0 
L -2 0 
" style="stroke: #000000; stroke-width: 0.6"/>
      </defs>
      <g>
       <use xlink:href="#m170d616b90" x="72" y="352.648359" style="stroke: #000000; stroke-width: 0.6"/>
      </g>
     </g>
    </g>
    <g id="ytick_8">
     <g id="line2d_41">
      <g>
       <use xlink:href="#m170d616b90" x="72" y="288.985076" style="stroke: #000000; stroke-width: 0.6"/>
      </g>
     </g>
    </g>
    <g id="ytick_9">
     <g id="line2d_42">
      <g>
       <use xlink:href="#m170d616b90" x="72" y="225.321794" style="stroke: #000000; stroke-width: 0.6"/>
      </g>
     </g>
    </g>
    <g id="ytick_10">
     <g id="line2d_43">
      <g>
       <use xlink:href="#m170d616b90" x="72" y="161.658512" style="stroke: #000000; stroke-width: 0.6"/>
      </g>
     </g>
    </g>
    <g id="ytick_11">
     <g id="line2d_44">
      <g>
       <use xlink:href="#m170d616b90" x="72" y="97.995229" style="stroke: #000000; stroke-width: 0.6"/>
      </g>
     </g>
    </g>
    <g id="text_14">
     <!-- Intensity -->
     <g transform="translate(43.017187 239.9225) rotate(-90) scale(0.1 -0.1)">
      <defs>
       <path id="DejaVuSans-49" d="M 628 4666 
L 1259 4666 
L 1259 0 
L 628 0 
L 628 4666 
z
" transform="scale(0.015625)"/>
       <path id="DejaVuSans-79" d="M 2059 -325 
Q 1816 -950 1584 -1140 
Q 1353 -1331 966 -1331 
L 506 -1331 
L 506 -850 
L 844 -850 
Q 1081 -850 1212 -737 
Q 1344 -625 1503 -206 
L 1606 56 
L 191 3500 
L 800 3500 
L 1894 763 
L 2988 3500 
L 3597 3500 
L 2059 -325 
z
" transform="scale(0.015625)"/>
      </defs>
      <use xlink:href="#DejaVuSans-49"/>
      <use xlink:href="#DejaVuSans-6e" transform="translate(29.492188 0)"/>
      <use xlink:href="#DejaVuSans-74" transform="translate(92.871094 0)"/>
      <use xlink:href="#DejaVuSans-65" transform="translate(132.080078 0)"/>
      <use xlink:href="#DejaVuSans-6e" transform="translate(193.603516 0)"/>
      <use xlink:href="#DejaVuSans-73" transform="translate(256.982422 0)"/>
      <use xlink:href="#DejaVuSans-69" transform="translate(309.082031 0)"/>
      <use xlink:href="#DejaVuSans-74" transform="translate(336.865234 0)"/>
      <use xlink:href="#DejaVuSans-79" transform="translate(376.074219 0)"/>
     </g>
    </g>
   </g>
   <g id="line2d_45">
    <path d="M 72 66.163588 
L 76.509091 69.042808 
L 81.018182 71.893091 
L 85.527273 74.714728 
L 90.036364 77.508007 
L 94.545455 80.273213 
L 99.054545 83.010629 
L 103.563636 85.720533 
L 108.072727 88.403202 
L 112.581818 91.05891 
L 117.090909 93.687927 
L 121.6 96.290522 
L 126.109091 98.866961 
L 130.618182 101.417507 
L 135.127273 103.942418 
L 139.636364 106.441954 
L 144.145455 108.91637 
L 148.654545 111.365917 
L 153.163636 113.790845 
L 157.672727 116.191403 
L 162.181818 118.567835 
L 166.690909 120.920383 
L 171.2 123.249288 
L 175.709091 125.554786 
L 180.218182 127.837115 
L 184.727273 130.096505 
L 189.236364 132.333188 
L 193.745455 134.547392 
L 198.254545 136.739343 
L 202.763636 138.909265 
L 207.272727 141.057378 
L 211.781818 143.183903 
L 216.290909 145.289055 
L 220.8 147.373051 
L 225.309091 149.436102 
L 229.818182 151.478419 
L 234.327273 153.50021 
L 238.836364 155.501682 
L 243.345455 157.483039 
L 247.854545 159.444483 
L 252.363636 161.386214 
L 256.872727 163.30843 
L 261.381818 165.211328 
L 265.890909 167.095101 
L 270.4 168.959942 
L 274.909091 170.806041 
L 279.418182 172.633587 
L 283.927273 174.442765 
L 288.436364 176.233761 
L 292.945455 178.006757 
L 297.454545 179.761934 
L 301.963636 181.499472 
L 306.472727 183.219546 
L 310.981818 184.922334 
L 315.490909 186.608009 
L 320 188.276742 
L 324.509091 189.928704 
L 329.018182 191.564063 
L 333.527273 193.182987 
L 338.036364 194.785641 
L 342.545455 196.372187 
L 347.054545 197.942789 
L 351.563636 199.497606 
L 356.072727 201.036796 
L 360.581818 202.560517 
L 365.090909 204.068925 
L 369.6 205.562173 
L 374.109091 207.040414 
L 378.618182 208.503798 
L 383.127273 209.952475 
L 387.636364 211.386592 
L 392.145455 212.806296 
L 396.654545 214.211732 
L 401.163636 215.603043 
L 405.672727 216.980372 
L 410.181818 218.343857 
L 414.690909 219.69364 
L 419.2 221.029857 
L 423.709091 222.352645 
L 428.218182 223.662138 
L 432.727273 224.958471 
L 437.236364 226.241776 
L 441.745455 227.512183 
L 446.254545 228.769823 
L 450.763636 230.014822 
L 455.272727 231.24731 
L 459.781818 232.467411 
L 464.290909 233.675249 
L 468.8 234.870949 
L 473.309091 236.054631 
L 477.818182 237.226417 
L 482.327273 238.386427 
L 486.836364 239.534779 
L 491.345455 240.671589 
L 495.854545 241.796974 
L 500.363636 242.911049 
L 504.872727 244.013927 
L 509.381818 245.105721 
L 513.890909 246.186543 
L 518.4 247.256502 
" clip-path="url(#pe4709aba7e)" style="fill: none; stroke: #1f77b4; stroke-width: 1.5; stroke-linecap: square"/>
   </g>
   <g id="line2d_46">
    <path d="M 72 66.163588 
L 76.509091 69.876782 
L 81.018182 73.541849 
L 85.527273 77.159411 
L 90.036364 80.730086 
L 94.545455 84.25448 
L 99.054545 87.733194 
L 103.563636 91.16682 
L 108.072727 94.555941 
L 112.581818 97.901136 
L 117.090909 101.202972 
L 121.6 104.462013 
L 126.109091 107.678812 
L 130.618182 110.853918 
L 135.127273 113.98787 
L 139.636364 117.081203 
L 144.145455 120.134442 
L 148.654545 123.148108 
L 153.163636 126.122713 
L 157.672727 129.058763 
L 162.181818 131.956758 
L 166.690909 134.817192 
L 171.2 137.640551 
L 175.709091 140.427316 
L 180.218182 143.177961 
L 184.727273 145.892955 
L 189.236364 148.572758 
L 193.745455 151.217828 
L 198.254545 153.828615 
L 202.763636 156.405563 
L 207.272727 158.94911 
L 211.781818 161.45969 
L 216.290909 163.93773 
L 220.8 166.383651 
L 225.309091 168.79787 
L 229.818182 171.180798 
L 234.327273 173.53284 
L 238.836364 175.854397 
L 243.345455 178.145863 
L 247.854545 180.40763 
L 252.363636 182.640081 
L 256.872727 184.843597 
L 261.381818 187.018552 
L 265.890909 189.165318 
L 270.4 191.284258 
L 274.909091 193.375735 
L 279.418182 195.440104 
L 283.927273 197.477715 
L 288.436364 199.488917 
L 292.945455 201.474052 
L 297.454545 203.433456 
L 301.963636 205.367464 
L 306.472727 207.276405 
L 310.981818 209.160604 
L 315.490909 211.020381 
L 320 212.856054 
L 324.509091 214.667933 
L 329.018182 216.456329 
L 333.527273 218.221545 
L 338.036364 219.963881 
L 342.545455 221.683635 
L 347.054545 223.381098 
L 351.563636 225.05656 
L 356.072727 226.710307 
L 360.581818 228.342618 
L 365.090909 229.953773 
L 369.6 231.544045 
L 374.109091 233.113706 
L 378.618182 234.663022 
L 383.127273 236.192256 
L 387.636364 237.70167 
L 392.145455 239.19152 
L 396.654545 240.66206 
L 401.163636 242.11354 
L 405.672727 243.546207 
L 410.181818 244.960304 
L 414.690909 246.356074 
L 419.2 247.733752 
L 423.709091 249.093574 
L 428.218182 250.435771 
L 432.727273 251.760572 
L 437.236364 253.068201 
L 441.745455 254.358882 
L 446.254545 255.632834 
L 450.763636 256.890274 
L 455.272727 258.131417 
L 459.781818 259.356472 
L 464.290909 260.565649 
L 468.8 261.759154 
L 473.309091 262.93719 
L 477.818182 264.099957 
L 482.327273 265.247653 
L 486.836364 266.380473 
L 491.345455 267.498611 
L 495.854545 268.602256 
L 500.363636 269.691596 
L 504.872727 270.766818 
L 509.381818 271.828103 
L 513.890909 272.875633 
L 518.4 273.909585 
" clip-path="url(#pe4709aba7e)" style="fill: none; stroke: #ff7f0e; stroke-width: 1.5; stroke-linecap: square"/>
   </g>
   <g id="line2d_47">
    <path d="M 72 66.163588 
L 76.509091 70.950274 
L 81.018182 75.656981 
L 85.527273 80.285048 
L 90.036364 84.835787 
L 94.545455 89.310491 
L 99.054545 93.71043 
L 103.563636 98.036853 
L 108.072727 102.290989 
L 112.581818 106.474046 
L 117.090909 110.58721 
L 121.6 114.631651 
L 126.109091 118.608515 
L 130.618182 122.518933 
L 135.127273 126.364014 
L 139.636364 130.14485 
L 144.145455 133.862514 
L 148.654545 137.518063 
L 153.163636 141.112533 
L 157.672727 144.646946 
L 162.181818 148.122305 
L 166.690909 151.539596 
L 171.2 154.89979 
L 175.709091 158.203841 
L 180.218182 161.452686 
L 184.727273 164.647249 
L 189.236364 167.788435 
L 193.745455 170.877138 
L 198.254545 173.914234 
L 202.763636 176.900584 
L 207.272727 179.837038 
L 211.781818 182.724429 
L 216.290909 185.563576 
L 220.8 188.355285 
L 225.309091 191.10035 
L 229.818182 193.79955 
L 234.327273 196.45365 
L 238.836364 199.063404 
L 243.345455 201.629554 
L 247.854545 204.152828 
L 252.363636 206.633942 
L 256.872727 209.073601 
L 261.381818 211.472497 
L 265.890909 213.831311 
L 270.4 216.150714 
L 274.909091 218.431363 
L 279.418182 220.673907 
L 283.927273 222.878981 
L 288.436364 225.047212 
L 292.945455 227.179215 
L 297.454545 229.275597 
L 301.963636 231.336951 
L 306.472727 233.363863 
L 310.981818 235.356909 
L 315.490909 237.316655 
L 320 239.243656 
L 324.509091 241.138461 
L 329.018182 243.001606 
L 333.527273 244.833622 
L 338.036364 246.635027 
L 342.545455 248.406334 
L 347.054545 250.148046 
L 351.563636 251.860656 
L 356.072727 253.544651 
L 360.581818 255.20051 
L 365.090909 256.828702 
L 369.6 258.429689 
L 374.109091 260.003927 
L 378.618182 261.551862 
L 383.127273 263.073933 
L 387.636364 264.570573 
L 392.145455 266.042207 
L 396.654545 267.489252 
L 401.163636 268.912119 
L 405.672727 270.311213 
L 410.181818 271.68693 
L 414.690909 273.039662 
L 419.2 274.369791 
L 423.709091 275.677696 
L 428.218182 276.963748 
L 432.727273 278.228312 
L 437.236364 279.471748 
L 441.745455 280.694408 
L 446.254545 281.896639 
L 450.763636 283.078783 
L 455.272727 284.241175 
L 459.781818 285.384146 
L 464.290909 286.508019 
L 468.8 287.613114 
L 473.309091 288.699745 
L 477.818182 289.768221 
L 482.327273 290.818844 
L 486.836364 291.851912 
L 491.345455 292.86772 
L 495.854545 293.866555 
L 500.363636 294.848702 
L 504.872727 295.814438 
L 509.381818 296.764039 
L 513.890909 297.697773 
L 518.4 298.615906 
" clip-path="url(#pe4709aba7e)" style="fill: none; stroke: #2ca02c; stroke-width: 1.5; stroke-linecap: square"/>
   </g>
   <g id="line2d_48">
    <path d="M 72 66.163588 
L 76.509091 72.330712 
L 81.018182 78.365078 
L 85.527273 84.269542 
L 90.036364 90.046901 
L 94.545455 95.699892 
L 99.054545 101.231192 
L 103.563636 106.64342 
L 108.072727 111.93914 
L 112.581818 117.120859 
L 117.090909 122.191032 
L 121.6 127.15206 
L 126.109091 132.006292 
L 130.618182 136.756028 
L 135.127273 141.403518 
L 139.636364 145.950961 
L 144.145455 150.400511 
L 148.654545 154.754277 
L 153.163636 159.01432 
L 157.672727 163.182657 
L 162.181818 167.261263 
L 166.690909 171.25207 
L 171.2 175.156967 
L 175.709091 178.977803 
L 180.218182 182.716389 
L 184.727273 186.374495 
L 189.236364 189.953853 
L 193.745455 193.456158 
L 198.254545 196.88307 
L 202.763636 200.236211 
L 207.272727 203.51717 
L 211.781818 206.7275 
L 216.290909 209.868721 
L 220.8 212.942322 
L 225.309091 215.949757 
L 229.818182 218.892452 
L 234.327273 221.7718 
L 238.836364 224.589164 
L 243.345455 227.34588 
L 247.854545 230.043251 
L 252.363636 232.682557 
L 256.872727 235.265047 
L 261.381818 237.791944 
L 265.890909 240.264445 
L 270.4 242.68372 
L 274.909091 245.050916 
L 279.418182 247.367154 
L 283.927273 249.63353 
L 288.436364 251.851118 
L 292.945455 254.020968 
L 297.454545 256.144109 
L 301.963636 258.221544 
L 306.472727 260.254259 
L 310.981818 262.243216 
L 315.490909 264.189357 
L 320 266.093604 
L 324.509091 267.956858 
L 329.018182 269.780002 
L 333.527273 271.5639 
L 338.036364 273.309395 
L 342.545455 275.017316 
L 347.054545 276.68847 
L 351.563636 278.32365 
L 356.072727 279.923629 
L 360.581818 281.489166 
L 365.090909 283.021002 
L 369.6 284.519862 
L 374.109091 285.986456 
L 378.618182 287.421479 
L 383.127273 288.82561 
L 387.636364 290.199515 
L 392.145455 291.543844 
L 396.654545 292.859234 
L 401.163636 294.146308 
L 405.672727 295.405674 
L 410.181818 296.637931 
L 414.690909 297.843661 
L 419.2 299.023435 
L 423.709091 300.177813 
L 428.218182 301.30734 
L 432.727273 302.412552 
L 437.236364 303.493972 
L 441.745455 304.552113 
L 446.254545 305.587476 
L 450.763636 306.60055 
L 455.272727 307.591815 
L 459.781818 308.561742 
L 464.290909 309.51079 
L 468.8 310.439407 
L 473.309091 311.348034 
L 477.818182 312.237102 
L 482.327273 313.10703 
L 486.836364 313.958232 
L 491.345455 314.79111 
L 495.854545 315.606058 
L 500.363636 316.403463 
L 504.872727 317.183703 
L 509.381818 317.947147 
L 513.890909 318.694156 
L 518.4 319.425084 
" clip-path="url(#pe4709aba7e)" style="fill: none; stroke: #d62728; stroke-width: 1.5; stroke-linecap: square"/>
   </g>
   <g id="line2d_49">
    <path d="M 72 66.163588 
L 76.509091 74.103612 
L 81.018182 81.823575 
L 85.527273 89.329577 
L 90.036364 96.627547 
L 94.545455 103.723252 
L 99.054545 110.622297 
L 103.563636 117.330132 
L 108.072727 123.852058 
L 112.581818 130.193226 
L 117.090909 136.358646 
L 121.6 142.35319 
L 126.109091 148.181592 
L 130.618182 153.848459 
L 135.127273 159.358267 
L 139.636364 164.715368 
L 144.145455 169.923995 
L 148.654545 174.988264 
L 153.163636 179.912174 
L 157.672727 184.699617 
L 162.181818 189.354374 
L 166.690909 193.880123 
L 171.2 198.280439 
L 175.709091 202.558799 
L 180.218182 206.718582 
L 184.727273 210.763076 
L 189.236364 214.695475 
L 193.745455 218.518887 
L 198.254545 222.236331 
L 202.763636 225.850745 
L 207.272727 229.364985 
L 211.781818 232.781826 
L 216.290909 236.103968 
L 220.8 239.334036 
L 225.309091 242.474581 
L 229.818182 245.528085 
L 234.327273 248.49696 
L 238.836364 251.383552 
L 243.345455 254.190141 
L 247.854545 256.918944 
L 252.363636 259.572118 
L 256.872727 262.151758 
L 261.381818 264.659902 
L 265.890909 267.098532 
L 270.4 269.469575 
L 274.909091 271.774904 
L 279.418182 274.016339 
L 283.927273 276.195653 
L 288.436364 278.314566 
L 292.945455 280.374752 
L 297.454545 282.37784 
L 301.963636 284.325412 
L 306.472727 286.219006 
L 310.981818 288.060118 
L 315.490909 289.850203 
L 320 291.590676 
L 324.509091 293.28291 
L 329.018182 294.928244 
L 333.527273 296.527977 
L 338.036364 298.083372 
L 342.545455 299.59566 
L 347.054545 301.066034 
L 351.563636 302.495655 
L 356.072727 303.885655 
L 360.581818 305.23713 
L 365.090909 306.551148 
L 369.6 307.828748 
L 374.109091 309.070939 
L 378.618182 310.278702 
L 383.127273 311.452992 
L 387.636364 312.594736 
L 392.145455 313.704836 
L 396.654545 314.784169 
L 401.163636 315.833588 
L 405.672727 316.853922 
L 410.181818 317.845977 
L 414.690909 318.810537 
L 419.2 319.748364 
L 423.709091 320.660198 
L 428.218182 321.546761 
L 432.727273 322.408753 
L 437.236364 323.246854 
L 441.745455 324.061727 
L 446.254545 324.854015 
L 450.763636 325.624345 
L 455.272727 326.373324 
L 459.781818 327.101546 
L 464.290909 327.809585 
L 468.8 328.498 
L 473.309091 329.167335 
L 477.818182 329.81812 
L 482.327273 330.450868 
L 486.836364 331.066079 
L 491.345455 331.664239 
L 495.854545 332.245821 
L 500.363636 332.811285 
L 504.872727 333.361076 
L 509.381818 333.89563 
L 513.890909 334.415368 
L 518.4 334.920702 
" clip-path="url(#pe4709aba7e)" style="fill: none; stroke: #9467bd; stroke-width: 1.5; stroke-linecap: square"/>
   </g>
   <g id="line2d_50">
    <path d="M 72 66.163588 
L 76.509091 76.376817 
L 81.018182 86.225942 
L 85.527273 95.723945 
L 90.036364 104.883342 
L 94.545455 113.716205 
L 99.054545 122.234175 
L 103.563636 130.448478 
L 108.072727 138.36994 
L 112.581818 146.009 
L 117.090909 153.375727 
L 121.6 160.479829 
L 126.109091 167.330668 
L 130.618182 173.937274 
L 135.127273 180.308353 
L 139.636364 186.452302 
L 144.145455 192.377218 
L 148.654545 198.090911 
L 153.163636 203.600909 
L 157.672727 208.914475 
L 162.181818 214.038611 
L 166.690909 218.980071 
L 171.2 223.745367 
L 175.709091 228.34078 
L 180.218182 232.772365 
L 184.727273 237.045964 
L 189.236364 241.167208 
L 193.745455 245.141529 
L 198.254545 248.974165 
L 202.763636 252.670167 
L 207.272727 256.234406 
L 211.781818 259.671579 
L 216.290909 262.986216 
L 220.8 266.182686 
L 225.309091 269.265201 
L 229.818182 272.237824 
L 234.327273 275.104473 
L 238.836364 277.868925 
L 243.345455 280.534824 
L 247.854545 283.105683 
L 252.363636 285.584891 
L 256.872727 287.975714 
L 261.381818 290.281305 
L 265.890909 292.5047 
L 270.4 294.648832 
L 274.909091 296.716524 
L 279.418182 298.710503 
L 283.927273 300.633396 
L 288.436364 302.487738 
L 292.945455 304.275973 
L 297.454545 306.000456 
L 301.963636 307.663461 
L 306.472727 309.26718 
L 310.981818 310.813726 
L 315.490909 312.305138 
L 320 313.74338 
L 324.509091 315.130349 
L 329.018182 316.467872 
L 333.527273 317.757712 
L 338.036364 319.001569 
L 342.545455 320.201083 
L 347.054545 321.357834 
L 351.563636 322.473346 
L 356.072727 323.54909 
L 360.581818 324.586484 
L 365.090909 325.586894 
L 369.6 326.55164 
L 374.109091 327.481992 
L 378.618182 328.379177 
L 383.127273 329.244377 
L 387.636364 330.078733 
L 392.145455 330.883344 
L 396.654545 331.65927 
L 401.163636 332.407535 
L 405.672727 333.129123 
L 410.181818 333.824987 
L 414.690909 334.496043 
L 419.2 335.143176 
L 423.709091 335.767239 
L 428.218182 336.369054 
L 432.727273 336.949414 
L 437.236364 337.509084 
L 441.745455 338.048801 
L 446.254545 338.569278 
L 450.763636 339.071199 
L 455.272727 339.555227 
L 459.781818 340.021999 
L 464.290909 340.472131 
L 468.8 340.906216 
L 473.309091 341.324825 
L 477.818182 341.728511 
L 482.327273 342.117805 
L 486.836364 342.493221 
L 491.345455 342.855253 
L 495.854545 343.204379 
L 500.363636 343.541059 
L 504.872727 343.865735 
L 509.381818 344.178837 
L 513.890909 344.480777 
L 518.4 344.771953 
" clip-path="url(#pe4709aba7e)" style="fill: none; stroke: #8c564b; stroke-width: 1.5; stroke-linecap: square"/>
   </g>
   <g id="line2d_51">
    <path d="M 72 66.163588 
L 76.509091 79.285342 
L 81.018182 91.806086 
L 85.527273 103.753346 
L 90.036364 115.153391 
L 94.545455 126.031284 
L 99.054545 136.41094 
L 103.563636 146.315181 
L 108.072727 155.765782 
L 112.581818 164.783521 
L 117.090909 173.388223 
L 121.6 181.598808 
L 126.109091 189.433326 
L 130.618182 196.909003 
L 135.127273 204.042274 
L 139.636364 210.848823 
L 144.145455 217.343614 
L 148.654545 223.540926 
L 153.163636 229.454385 
L 157.672727 235.096992 
L 162.181818 240.481153 
L 166.690909 245.618706 
L 171.2 250.520945 
L 175.709091 255.198648 
L 180.218182 259.662101 
L 184.727273 263.921115 
L 189.236364 267.985056 
L 193.745455 271.862857 
L 198.254545 275.563045 
L 202.763636 279.093755 
L 207.272727 282.462749 
L 211.781818 285.677434 
L 216.290909 288.744878 
L 220.8 291.671825 
L 225.309091 294.46471 
L 229.818182 297.129674 
L 234.327273 299.672575 
L 238.836364 302.099005 
L 243.345455 304.414298 
L 247.854545 306.623545 
L 252.363636 308.731602 
L 256.872727 310.743105 
L 261.381818 312.662475 
L 265.890909 314.493934 
L 270.4 316.241506 
L 274.909091 317.909036 
L 279.418182 319.500188 
L 283.927273 321.018461 
L 288.436364 322.467194 
L 292.945455 323.84957 
L 297.454545 325.16863 
L 301.963636 326.427274 
L 306.472727 327.628268 
L 310.981818 328.774254 
L 315.490909 329.867751 
L 320 330.911162 
L 324.509091 331.906783 
L 329.018182 332.856802 
L 333.527273 333.763307 
L 338.036364 334.628292 
L 342.545455 335.453658 
L 347.054545 336.241221 
L 351.563636 336.992711 
L 356.072727 337.70978 
L 360.581818 338.394006 
L 365.090909 339.046893 
L 369.6 339.669876 
L 374.109091 340.264325 
L 378.618182 340.831546 
L 383.127273 341.372787 
L 387.636364 341.889238 
L 392.145455 342.382034 
L 396.654545 342.852258 
L 401.163636 343.300945 
L 405.672727 343.729081 
L 410.181818 344.137608 
L 414.690909 344.527422 
L 419.2 344.899383 
L 423.709091 345.254306 
L 428.218182 345.592973 
L 432.727273 345.916128 
L 437.236364 346.224482 
L 441.745455 346.518713 
L 446.254545 346.799466 
L 450.763636 347.067361 
L 455.272727 347.322985 
L 459.781818 347.566901 
L 464.290909 347.799646 
L 468.8 348.021729 
L 473.309091 348.233641 
L 477.818182 348.435847 
L 482.327273 348.628791 
L 486.836364 348.812898 
L 491.345455 348.988572 
L 495.854545 349.1562 
L 500.363636 349.31615 
L 504.872727 349.468774 
L 509.381818 349.614407 
L 513.890909 349.75337 
L 518.4 349.885968 
" clip-path="url(#pe4709aba7e)" style="fill: none; stroke: #e377c2; stroke-width: 1.5; stroke-linecap: square"/>
   </g>
   <g id="line2d_52">
    <path d="M 72 66.163588 
L 76.509091 82.996581 
L 81.018182 98.840518 
L 85.527273 113.753512 
L 90.036364 127.790263 
L 94.545455 141.002256 
L 99.054545 153.437951 
L 103.563636 165.142963 
L 108.072727 176.160222 
L 112.581818 186.53014 
L 117.090909 196.290753 
L 121.6 205.477861 
L 126.109091 214.125161 
L 130.618182 222.264373 
L 135.127273 229.925348 
L 139.636364 237.136187 
L 144.145455 243.923339 
L 148.654545 250.311698 
L 153.163636 256.324695 
L 157.672727 261.984387 
L 162.181818 267.311533 
L 166.690909 272.325671 
L 171.2 277.045193 
L 175.709091 281.48741 
L 180.218182 285.668616 
L 184.727273 289.604147 
L 189.236364 293.308437 
L 193.745455 296.795074 
L 198.254545 300.076847 
L 202.763636 303.165793 
L 207.272727 306.073241 
L 211.781818 308.809857 
L 216.290909 311.385677 
L 220.8 313.810149 
L 225.309091 316.092167 
L 229.818182 318.2401 
L 234.327273 320.261827 
L 238.836364 322.164763 
L 243.345455 323.955889 
L 247.854545 325.641773 
L 252.363636 327.2286 
L 256.872727 328.722189 
L 261.381818 330.12802 
L 265.890909 331.451248 
L 270.4 332.696727 
L 274.909091 333.869026 
L 279.418182 334.972443 
L 283.927273 336.011028 
L 288.436364 336.988588 
L 292.945455 337.908709 
L 297.454545 338.774767 
L 301.963636 339.589938 
L 306.472727 340.357212 
L 310.981818 341.079403 
L 315.490909 341.759161 
L 320 342.398978 
L 324.509091 343.001201 
L 329.018182 343.568039 
L 333.527273 344.101572 
L 338.036364 344.603756 
L 342.545455 345.076433 
L 347.054545 345.521336 
L 351.563636 345.940099 
L 356.072727 346.334256 
L 360.581818 346.705254 
L 365.090909 347.054453 
L 369.6 347.383135 
L 374.109091 347.692504 
L 378.618182 347.983695 
L 383.127273 348.257777 
L 387.636364 348.515754 
L 392.145455 348.758574 
L 396.654545 348.987126 
L 401.163636 349.202249 
L 405.672727 349.404732 
L 410.181818 349.595318 
L 414.690909 349.774706 
L 419.2 349.943553 
L 423.709091 350.102479 
L 428.218182 350.252068 
L 432.727273 350.392867 
L 437.236364 350.525393 
L 441.745455 350.650132 
L 446.254545 350.767542 
L 450.763636 350.878053 
L 455.272727 350.982071 
L 459.781818 351.079977 
L 464.290909 351.17213 
L 468.8 351.258869 
L 473.309091 351.340511 
L 477.818182 351.417357 
L 482.327273 351.489687 
L 486.836364 351.557767 
L 491.345455 351.621847 
L 495.854545 351.682162 
L 500.363636 351.738932 
L 504.872727 351.792368 
L 509.381818 351.842663 
L 513.890909 351.890003 
L 518.4 351.934562 
" clip-path="url(#pe4709aba7e)" style="fill: none; stroke: #7f7f7f; stroke-width: 1.5; stroke-linecap: square"/>
   </g>
   <g id="line2d_53">
    <path d="M 72 66.163588 
L 76.509091 87.715369 
L 81.018182 107.645845 
L 85.527273 126.076983 
L 90.036364 143.121577 
L 94.545455 158.883934 
L 99.054545 173.460515 
L 103.563636 186.940524 
L 108.072727 199.406453 
L 112.581818 210.934591 
L 117.090909 221.595486 
L 121.6 231.454379 
L 126.109091 240.571604 
L 130.618182 249.002955 
L 135.127273 256.80003 
L 139.636364 264.010543 
L 144.145455 270.678621 
L 148.654545 276.84507 
L 153.163636 282.547627 
L 157.672727 287.821191 
L 162.181818 292.698033 
L 166.690909 297.207998 
L 171.2 301.378685 
L 175.709091 305.235619 
L 180.218182 308.802402 
L 184.727273 312.100862 
L 189.236364 315.151184 
L 193.745455 317.972035 
L 198.254545 320.580678 
L 202.763636 322.993077 
L 207.272727 325.223995 
L 211.781818 327.287085 
L 216.290909 329.194973 
L 220.8 330.959332 
L 225.309091 332.590962 
L 229.818182 334.099848 
L 234.327273 335.495222 
L 238.836364 336.785624 
L 243.345455 337.978952 
L 247.854545 339.082507 
L 252.363636 340.103044 
L 256.872727 341.046808 
L 261.381818 341.919573 
L 265.890909 342.726682 
L 270.4 343.473074 
L 274.909091 344.163316 
L 279.418182 344.801631 
L 283.927273 345.391928 
L 288.436364 345.937817 
L 292.945455 346.44264 
L 297.454545 346.909486 
L 301.963636 347.341212 
L 306.472727 347.74046 
L 310.981818 348.109674 
L 315.490909 348.451111 
L 320 348.766863 
L 324.509091 349.058862 
L 329.018182 349.328894 
L 333.527273 349.578612 
L 338.036364 349.809544 
L 342.545455 350.023103 
L 347.054545 350.220597 
L 351.563636 350.403234 
L 356.072727 350.572131 
L 360.581818 350.728322 
L 365.090909 350.872763 
L 369.6 351.006338 
L 374.109091 351.129865 
L 378.618182 351.244099 
L 383.127273 351.349739 
L 387.636364 351.447432 
L 392.145455 351.537776 
L 396.654545 351.621323 
L 401.163636 351.698585 
L 405.672727 351.770035 
L 410.181818 351.83611 
L 414.690909 351.897214 
L 419.2 351.953722 
L 423.709091 352.005978 
L 428.218182 352.054303 
L 432.727273 352.098993 
L 437.236364 352.140321 
L 441.745455 352.17854 
L 446.254545 352.213884 
L 450.763636 352.246568 
L 455.272727 352.276794 
L 459.781818 352.304747 
L 464.290909 352.330596 
L 468.8 352.354501 
L 473.309091 352.376607 
L 477.818182 352.397051 
L 482.327273 352.415956 
L 486.836364 352.433439 
L 491.345455 352.449607 
L 495.854545 352.464559 
L 500.363636 352.478386 
L 504.872727 352.491173 
L 509.381818 352.502998 
L 513.890909 352.513933 
L 518.4 352.524046 
" clip-path="url(#pe4709aba7e)" style="fill: none; stroke: #bcbd22; stroke-width: 1.5; stroke-linecap: square"/>
   </g>
   <g id="line2d_54">
    <path d="M 72 66.163588 
L 76.509091 93.687927 
L 81.018182 118.567835 
L 85.527273 141.057378 
L 90.036364 161.386214 
L 94.545455 179.761934 
L 99.054545 196.372187 
L 103.563636 211.386592 
L 108.072727 224.958471 
L 112.581818 237.226417 
L 117.090909 248.315707 
L 121.6 258.339581 
L 126.109091 267.400401 
L 130.618182 275.590692 
L 135.127273 282.994092 
L 139.636364 289.686202 
L 144.145455 295.73536 
L 148.654545 301.203339 
L 153.163636 306.145976 
L 157.672727 310.613743 
L 162.181818 314.652265 
L 166.690909 318.302782 
L 171.2 321.602571 
L 175.709091 324.585329 
L 180.218182 327.281515 
L 184.727273 329.718663 
L 189.236364 331.921658 
L 193.745455 333.912999 
L 198.254545 335.713019 
L 202.763636 337.3401 
L 207.272727 338.810858 
L 211.781818 340.140311 
L 216.290909 341.342036 
L 220.8 342.428303 
L 225.309091 343.410206 
L 229.818182 344.297772 
L 234.327273 345.100064 
L 238.836364 345.825274 
L 243.345455 346.48081 
L 247.854545 347.073364 
L 252.363636 347.608987 
L 256.872727 348.093151 
L 261.381818 348.530797 
L 265.890909 348.926397 
L 270.4 349.283988 
L 274.909091 349.607224 
L 279.418182 349.899404 
L 283.927273 350.163513 
L 288.436364 350.402247 
L 292.945455 350.618045 
L 297.454545 350.81311 
L 301.963636 350.989433 
L 306.472727 351.148816 
L 310.981818 351.292886 
L 315.490909 351.423115 
L 320 351.540832 
L 324.509091 351.647238 
L 329.018182 351.743422 
L 333.527273 351.830365 
L 338.036364 351.908955 
L 342.545455 351.979994 
L 347.054545 352.044208 
L 351.563636 352.102252 
L 356.072727 352.15472 
L 360.581818 352.202147 
L 365.090909 352.245017 
L 369.6 352.283769 
L 374.109091 352.318797 
L 378.618182 352.35046 
L 383.127273 352.379081 
L 387.636364 352.404952 
L 392.145455 352.428338 
L 396.654545 352.449476 
L 401.163636 352.468584 
L 405.672727 352.485856 
L 410.181818 352.501469 
L 414.690909 352.515582 
L 419.2 352.528338 
L 423.709091 352.539869 
L 428.218182 352.550293 
L 432.727273 352.559714 
L 437.236364 352.568231 
L 441.745455 352.575929 
L 446.254545 352.582888 
L 450.763636 352.589178 
L 455.272727 352.594864 
L 459.781818 352.600004 
L 464.290909 352.604649 
L 468.8 352.608849 
L 473.309091 352.612645 
L 477.818182 352.616076 
L 482.327273 352.619178 
L 486.836364 352.621981 
L 491.345455 352.624516 
L 495.854545 352.626806 
L 500.363636 352.628877 
L 504.872727 352.630749 
L 509.381818 352.632441 
L 513.890909 352.63397 
L 518.4 352.635352 
" clip-path="url(#pe4709aba7e)" style="fill: none; stroke: #17becf; stroke-width: 1.5; stroke-linecap: square"/>
   </g>
   <g id="patch_3">
    <path d="M 72 384.48 
L 72 51.84 
" style="fill: none; stroke: #000000; stroke-width: 0.8; stroke-linejoin: miter; stroke-linecap: square"/>
   </g>
   <g id="patch_4">
    <path d="M 518.4 384.48 
L 518.4 51.84 
" style="fill: none; stroke: #000000; stroke-width: 0.8; stroke-linejoin: miter; stroke-linecap: square"/>
   </g>
   <g id="patch_5">
    <path d="M 72 384.48 
L 518.4 384.48 
" style="fill: none; stroke: #000000; stroke-width: 0.8; stroke-linejoin: miter; stroke-linecap: square"/>
   </g>
   <g id="patch_6">
    <path d="M 72 51.84 
L 518.4 51.84 
" style="fill: none; stroke: #000000; stroke-width: 0.8; stroke-linejoin: miter; stroke-linecap: square"/>
   </g>
   <g id="text_15">
    <!-- Bounded Exponential Decay Rates for Different -->
    <g transform="translate(153.129375 32.402625) scale(0.12 -0.12)">
     <defs>
      <path id="DejaVuSans-42" d="M 1259 2228 
L 1259 519 
L 2272 519 
Q 2781 519 3026 730 
Q 3272 941 3272 1375 
Q 3272 1813 3026 2020 
Q 2781 2228 2272 2228 
L 1259 2228 
z
M 1259 4147 
L 1259 2741 
L 2194 2741 
Q 2656 2741 2882 2914 
Q 3109 3088 3109 3444 
Q 3109 3797 2882 3972 
Q 2656 4147 2194 4147 
L 1259 4147 
z
M 628 4666 
L 2241 4666 
Q 2963 4666 3353 4366 
Q 3744 4066 3744 3513 
Q 3744 3084 3544 2831 
Q 3344 2578 2956 2516 
Q 3422 2416 3680 2098 
Q 3938 1781 3938 1306 
Q 3938 681 3513 340 
Q 3088 0 2303 0 
L 628 0 
L 628 4666 
z
" transform="scale(0.015625)"/>
      <path id="DejaVuSans-6f" d="M 1959 3097 
Q 1497 3097 1228 2736 
Q 959 2375 959 1747 
Q 959 1119 1226 758 
Q 1494 397 1959 397 
Q 2419 397 2687 759 
Q 2956 1122 2956 1747 
Q 2956 2369 2687 2733 
Q 2419 3097 1959 3097 
z
M 1959 3584 
Q 2709 3584 3137 3096 
Q 3566 2609 3566 1747 
Q 3566 888 3137 398 
Q 2709 -91 1959 -91 
Q 1206 -91 779 398 
Q 353 888 353 1747 
Q 353 2609 779 3096 
Q 1206 3584 1959 3584 
z
" transform="scale(0.015625)"/>
      <path id="DejaVuSans-75" d="M 544 1381 
L 544 3500 
L 1119 3500 
L 1119 1403 
Q 1119 906 1312 657 
Q 1506 409 1894 409 
Q 2359 409 2629 706 
Q 2900 1003 2900 1516 
L 2900 3500 
L 3475 3500 
L 3475 0 
L 2900 0 
L 2900 538 
Q 2691 219 2414 64 
Q 2138 -91 1772 -91 
Q 1169 -91 856 284 
Q 544 659 544 1381 
z
M 1991 3584 
L 1991 3584 
z
" transform="scale(0.015625)"/>
      <path id="DejaVuSans-64" d="M 2906 2969 
L 2906 4863 
L 3481 4863 
L 3481 0 
L 2906 0 
L 2906 525 
Q 2725 213 2448 61 
Q 2172 -91 1784 -91 
Q 1150 -91 751 415 
Q 353 922 353 1747 
Q 353 2572 751 3078 
Q 1150 3584 1784 3584 
Q 2172 3584 2448 3432 
Q 2725 3281 2906 2969 
z
M 947 1747 
Q 947 1113 1208 752 
Q 1469 391 1925 391 
Q 2381 391 2643 752 
Q 2906 1113 2906 1747 
Q 2906 2381 2643 2742 
Q 2381 3103 1925 3103 
Q 1469 3103 1208 2742 
Q 947 2381 947 1747 
z
" transform="scale(0.015625)"/>
      <path id="DejaVuSans-20" transform="scale(0.015625)"/>
      <path id="DejaVuSans-45" d="M 628 4666 
L 3578 4666 
L 3578 4134 
L 1259 4134 
L 1259 2753 
L 3481 2753 
L 3481 2222 
L 1259 2222 
L 1259 531 
L 3634 531 
L 3634 0 
L 628 0 
L 628 4666 
z
" transform="scale(0.015625)"/>
      <path id="DejaVuSans-78" d="M 3513 3500 
L 2247 1797 
L 3578 0 
L 2900 0 
L 1881 1375 
L 863 0 
L 184 0 
L 1544 1831 
L 300 3500 
L 978 3500 
L 1906 2253 
L 2834 3500 
L 3513 3500 
z
" transform="scale(0.015625)"/>
      <path id="DejaVuSans-70" d="M 1159 525 
L 1159 -1331 
L 581 -1331 
L 581 3500 
L 1159 3500 
L 1159 2969 
Q 1341 3281 1617 3432 
Q 1894 3584 2278 3584 
Q 2916 3584 3314 3078 
Q 3713 2572 3713 1747 
Q 3713 922 3314 415 
Q 2916 -91 2278 -91 
Q 1894 -91 1617 61 
Q 1341 213 1159 525 
z
M 3116 1747 
Q 3116 2381 2855 2742 
Q 2594 3103 2138 3103 
Q 1681 3103 1420 2742 
Q 1159 2381 1159 1747 
Q 1159 1113 1420 752 
Q 1681 391 2138 391 
Q 2594 391 2855 752 
Q 3116 1113 3116 1747 
z
" transform="scale(0.015625)"/>
      <path id="DejaVuSans-6c" d="M 603 4863 
L 1178 4863 
L 1178 0 
L 603 0 
L 603 4863 
z
" transform="scale(0.015625)"/>
      <path id="DejaVuSans-52" d="M 2841 2188 
Q 3044 2119 3236 1894 
Q 3428 1669 3622 1275 
L 4263 0 
L 3584 0 
L 2988 1197 
Q 2756 1666 2539 1819 
Q 2322 1972 1947 1972 
L 1259 1972 
L 1259 0 
L 628 0 
L 628 4666 
L 2053 4666 
Q 2853 4666 3247 4331 
Q 3641 3997 3641 3322 
Q 3641 2881 3436 2590 
Q 3231 2300 2841 2188 
z
M 1259 4147 
L 1259 2491 
L 2053 2491 
Q 2509 2491 2742 2702 
Q 2975 2913 2975 3322 
Q 2975 3731 2742 3939 
Q 2509 4147 2053 4147 
L 1259 4147 
z
" transform="scale(0.015625)"/>
      <path id="DejaVuSans-66" d="M 2375 4863 
L 2375 4384 
L 1825 4384 
Q 1516 4384 1395 4259 
Q 1275 4134 1275 3809 
L 1275 3500 
L 2222 3500 
L 2222 3053 
L 1275 3053 
L 1275 0 
L 697 0 
L 697 3053 
L 147 3053 
L 147 3500 
L 697 3500 
L 697 3744 
Q 697 4328 969 4595 
Q 1241 4863 1831 4863 
L 2375 4863 
z
" transform="scale(0.015625)"/>
      <path id="DejaVuSans-72" d="M 2631 2963 
Q 2534 3019 2420 3045 
Q 2306 3072 2169 3072 
Q 1681 3072 1420 2755 
Q 1159 2438 1159 1844 
L 1159 0 
L 581 0 
L 581 3500 
L 1159 3500 
L 1159 2956 
Q 1341 3275 1631 3429 
Q 1922 3584 2338 3584 
Q 2397 3584 2469 3576 
Q 2541 3569 2628 3553 
L 2631 2963 
z
" transform="scale(0.015625)"/>
     </defs>
     <use xlink:href="#DejaVuSans-42"/>
     <use xlink:href="#DejaVuSans-6f" transform="translate(68.603516 0)"/>
     <use xlink:href="#DejaVuSans-75" transform="translate(129.785156 0)"/>
     <use xlink:href="#DejaVuSans-6e" transform="translate(193.164062 0)"/>
     <use xlink:href="#DejaVuSans-64" transform="translate(256.542969 0)"/>
     <use xlink:href="#DejaVuSans-65" transform="translate(320.019531 0)"/>
     <use xlink:href="#DejaVuSans-64" transform="translate(381.542969 0)"/>
     <use xlink:href="#DejaVuSans-20" transform="translate(445.019531 0)"/>
     <use xlink:href="#DejaVuSans-45" transform="translate(476.806641 0)"/>
     <use xlink:href="#DejaVuSans-78" transform="translate(539.990234 0)"/>
     <use xlink:href="#DejaVuSans-70" transform="translate(599.169922 0)"/>
     <use xlink:href="#DejaVuSans-6f" transform="translate(662.646484 0)"/>
     <use xlink:href="#DejaVuSans-6e" transform="translate(723.828125 0)"/>
     <use xlink:href="#DejaVuSans-65" transform="translate(787.207031 0)"/>
     <use xlink:href="#DejaVuSans-6e" transform="translate(848.730469 0)"/>
     <use xlink:href="#DejaVuSans-74" transform="translate(912.109375 0)"/>
     <use xlink:href="#DejaVuSans-69" transform="translate(951.318359 0)"/>
     <use xlink:href="#DejaVuSans-61" transform="translate(979.101562 0)"/>
     <use xlink:href="#DejaVuSans-6c" transform="translate(1040.380859 0)"/>
     <use xlink:href="#DejaVuSans-20" transform="translate(1068.164062 0)"/>
     <use xlink:href="#DejaVuSans-44" transform="translate(1099.951172 0)"/>
     <use xlink:href="#DejaVuSans-65" transform="translate(1176.953125 0)"/>
     <use xlink:href="#DejaVuSans-63" transform="translate(1238.476562 0)"/>
     <use xlink:href="#DejaVuSans-61" transform="translate(1293.457031 0)"/>
     <use xlink:href="#DejaVuSans-79" transform="translate(1354.736328 0)"/>
     <use xlink:href="#DejaVuSans-20" transform="translate(1413.916016 0)"/>
     <use xlink:href="#DejaVuSans-52" transform="translate(1445.703125 0)"/>
     <use xlink:href="#DejaVuSans-61" transform="translate(1512.935547 0)"/>
     <use xlink:href="#DejaVuSans-74" transform="translate(1574.214844 0)"/>
     <use xlink:href="#DejaVuSans-65" transform="translate(1613.423828 0)"/>
     <use xlink:href="#DejaVuSans-73" transform="translate(1674.947266 0)"/>
     <use xlink:href="#DejaVuSans-20" transform="translate(1727.046875 0)"/>
     <use xlink:href="#DejaVuSans-66" transform="translate(1758.833984 0)"/>
     <use xlink:href="#DejaVuSans-6f" transform="translate(1794.039062 0)"/>
     <use xlink:href="#DejaVuSans-72" transform="translate(1855.220703 0)"/>
     <use xlink:href="#DejaVuSans-20" transform="translate(1896.333984 0)"/>
     <use xlink:href="#DejaVuSans-44" transform="translate(1928.121094 0)"/>
     <use xlink:href="#DejaVuSans-69" transform="translate(2005.123047 0)"/>
     <use xlink:href="#DejaVuSans-66" transform="translate(2032.90625 0)"/>
     <use xlink:href="#DejaVuSans-66" transform="translate(2068.111328 0)"/>
     <use xlink:href="#DejaVuSans-65" transform="translate(2103.316406 0)"/>
     <use xlink:href="#DejaVuSans-72" transform="translate(2164.839844 0)"/>
     <use xlink:href="#DejaVuSans-65" transform="translate(2203.703125 0)"/>
     <use xlink:href="#DejaVuSans-6e" transform="translate(2265.226562 0)"/>
     <use xlink:href="#DejaVuSans-74" transform="translate(2328.605469 0)"/>
    </g>
    <!-- Absorption Coefficients () -->
    <g transform="translate(215.025937 45.84) scale(0.12 -0.12)">
     <defs>
      <path id="DejaVuSans-41" d="M 2188 4044 
L 1331 1722 
L 3047 1722 
L 2188 4044 
z
M 1831 4666 
L 2547 4666 
L 4325 0 
L 3669 0 
L 3244 1197 
L 1141 1197 
L 716 0 
L 50 0 
L 1831 4666 
z
" transform="scale(0.015625)"/>
      <path id="DejaVuSans-62" d="M 3116 1747 
Q 3116 2381 2855 2742 
Q 2594 3103 2138 3103 
Q 1681 3103 1420 2742 
Q 1159 2381 1159 1747 
Q 1159 1113 1420 752 
Q 1681 391 2138 391 
Q 2594 391 2855 752 
Q 3116 1113 3116 1747 
z
M 1159 2969 
Q 1341 3281 1617 3432 
Q 1894 3584 2278 3584 
Q 2916 3584 3314 3078 
Q 3713 2572 3713 1747 
Q 3713 922 3314 415 
Q 2916 -91 2278 -91 
Q 1894 -91 1617 61 
Q 1341 213 1159 525 
L 1159 0 
L 581 0 
L 581 4863 
L 1159 4863 
L 1159 2969 
z
" transform="scale(0.015625)"/>
      <path id="DejaVuSans-43" d="M 4122 4306 
L 4122 3641 
Q 3803 3938 3442 4084 
Q 3081 4231 2675 4231 
Q 1875 4231 1450 3742 
Q 1025 3253 1025 2328 
Q 1025 1406 1450 917 
Q 1875 428 2675 428 
Q 3081 428 3442 575 
Q 3803 722 4122 1019 
L 4122 359 
Q 3791 134 3420 21 
Q 3050 -91 2638 -91 
Q 1578 -91 968 557 
Q 359 1206 359 2328 
Q 359 3453 968 4101 
Q 1578 4750 2638 4750 
Q 3056 4750 3426 4639 
Q 3797 4528 4122 4306 
z
" transform="scale(0.015625)"/>
      <path id="DejaVuSans-28" d="M 1984 4856 
Q 1566 4138 1362 3434 
Q 1159 2731 1159 2009 
Q 1159 1288 1364 580 
Q 1569 -128 1984 -844 
L 1484 -844 
Q 1016 -109 783 600 
Q 550 1309 550 2009 
Q 550 2706 781 3412 
Q 1013 4119 1484 4856 
L 1984 4856 
z
" transform="scale(0.015625)"/>
      <path id="DejaVuSans-3bc" d="M 544 -1331 
L 544 3500 
L 1119 3500 
L 1119 1325 
Q 1119 872 1334 640 
Q 1550 409 1972 409 
Q 2434 409 2667 671 
Q 2900 934 2900 1459 
L 2900 3500 
L 3475 3500 
L 3475 806 
Q 3475 619 3529 530 
Q 3584 441 3700 441 
Q 3728 441 3778 458 
Q 3828 475 3916 513 
L 3916 50 
Q 3788 -22 3673 -56 
Q 3559 -91 3450 -91 
Q 3234 -91 3106 31 
Q 2978 153 2931 403 
Q 2775 156 2548 32 
Q 2322 -91 2016 -91 
Q 1697 -91 1473 31 
Q 1250 153 1119 397 
L 1119 -1331 
L 544 -1331 
z
" transform="scale(0.015625)"/>
      <path id="DejaVuSans-29" d="M 513 4856 
L 1013 4856 
Q 1481 4119 1714 3412 
Q 1947 2706 1947 2009 
Q 1947 1309 1714 600 
Q 1481 -109 1013 -844 
L 513 -844 
Q 928 -128 1133 580 
Q 1338 1288 1338 2009 
Q 1338 2731 1133 3434 
Q 928 4138 513 4856 
z
" transform="scale(0.015625)"/>
     </defs>
     <use xlink:href="#DejaVuSans-41"/>
     <use xlink:href="#DejaVuSans-62" transform="translate(68.408203 0)"/>
     <use xlink:href="#DejaVuSans-73" transform="translate(131.884766 0)"/>
     <use xlink:href="#DejaVuSans-6f" transform="translate(183.984375 0)"/>
     <use xlink:href="#DejaVuSans-72" transform="translate(245.166016 0)"/>
     <use xlink:href="#DejaVuSans-70" transform="translate(286.279297 0)"/>
     <use xlink:href="#DejaVuSans-74" transform="translate(349.755859 0)"/>
     <use xlink:href="#DejaVuSans-69" transform="translate(388.964844 0)"/>
     <use xlink:href="#DejaVuSans-6f" transform="translate(416.748047 0)"/>
     <use xlink:href="#DejaVuSans-6e" transform="translate(477.929688 0)"/>
     <use xlink:href="#DejaVuSans-20" transform="translate(541.308594 0)"/>
     <use xlink:href="#DejaVuSans-43" transform="translate(573.095703 0)"/>
     <use xlink:href="#DejaVuSans-6f" transform="translate(642.919922 0)"/>
     <use xlink:href="#DejaVuSans-65" transform="translate(704.101562 0)"/>
     <use xlink:href="#DejaVuSans-66" transform="translate(765.625 0)"/>
     <use xlink:href="#DejaVuSans-66" transform="translate(800.830078 0)"/>
     <use xlink:href="#DejaVuSans-69" transform="translate(836.035156 0)"/>
     <use xlink:href="#DejaVuSans-63" transform="translate(863.818359 0)"/>
     <use xlink:href="#DejaVuSans-69" transform="translate(918.798828 0)"/>
     <use xlink:href="#DejaVuSans-65" transform="translate(946.582031 0)"/>
     <use xlink:href="#DejaVuSans-6e" transform="translate(1008.105469 0)"/>
     <use xlink:href="#DejaVuSans-74" transform="translate(1071.484375 0)"/>
     <use xlink:href="#DejaVuSans-73" transform="translate(1110.693359 0)"/>
     <use xlink:href="#DejaVuSans-20" transform="translate(1162.792969 0)"/>
     <use xlink:href="#DejaVuSans-28" transform="translate(1194.580078 0)"/>
     <use xlink:href="#DejaVuSans-3bc" transform="translate(1233.59375 0)"/>
     <use xlink:href="#DejaVuSans-29" transform="translate(1297.216797 0)"/>
    </g>
   </g>
   <g id="legend_1">
    <g id="patch_7">
     <path d="M 338.309375 133.230625 
L 511.4 133.230625 
Q 513.4 133.230625 513.4 131.230625 
L 513.4 58.84 
Q 513.4 56.84 511.4 56.84 
L 338.309375 56.84 
Q 336.309375 56.84 336.309375 58.84 
L 336.309375 131.230625 
Q 336.309375 133.230625 338.309375 133.230625 
z
" style="fill: #ffffff; opacity: 0.8; stroke: #cccccc; stroke-linejoin: miter"/>
    </g>
    <g id="line2d_55">
     <path d="M 340.309375 64.938437 
L 350.309375 64.938437 
L 360.309375 64.938437 
" style="fill: none; stroke: #1f77b4; stroke-width: 1.5; stroke-linecap: square"/>
    </g>
    <g id="text_16">
     <!--  = 1.00 -->
     <g transform="translate(368.309375 68.438437) scale(0.1 -0.1)">
      <defs>
       <path id="DejaVuSans-3d" d="M 678 2906 
L 4684 2906 
L 4684 2381 
L 678 2381 
L 678 2906 
z
M 678 1631 
L 4684 1631 
L 4684 1100 
L 678 1100 
L 678 1631 
z
" transform="scale(0.015625)"/>
      </defs>
      <use xlink:href="#DejaVuSans-3bc"/>
      <use xlink:href="#DejaVuSans-20" transform="translate(63.623047 0)"/>
      <use xlink:href="#DejaVuSans-3d" transform="translate(95.410156 0)"/>
      <use xlink:href="#DejaVuSans-20" transform="translate(179.199219 0)"/>
      <use xlink:href="#DejaVuSans-31" transform="translate(210.986328 0)"/>
      <use xlink:href="#DejaVuSans-2e" transform="translate(274.609375 0)"/>
      <use xlink:href="#DejaVuSans-30" transform="translate(306.396484 0)"/>
      <use xlink:href="#DejaVuSans-30" transform="translate(370.019531 0)"/>
     </g>
    </g>
    <g id="line2d_56">
     <path d="M 340.309375 79.616562 
L 350.309375 79.616562 
L 360.309375 79.616562 
" style="fill: none; stroke: #ff7f0e; stroke-width: 1.5; stroke-linecap: square"/>
    </g>
    <g id="text_17">
     <!--  = 1.29 -->
     <g transform="translate(368.309375 83.116562) scale(0.1 -0.1)">
      <defs>
       <path id="DejaVuSans-39" d="M 703 97 
L 703 672 
Q 941 559 1184 500 
Q 1428 441 1663 441 
Q 2288 441 2617 861 
Q 2947 1281 2994 2138 
Q 2813 1869 2534 1725 
Q 2256 1581 1919 1581 
Q 1219 1581 811 2004 
Q 403 2428 403 3163 
Q 403 3881 828 4315 
Q 1253 4750 1959 4750 
Q 2769 4750 3195 4129 
Q 3622 3509 3622 2328 
Q 3622 1225 3098 567 
Q 2575 -91 1691 -91 
Q 1453 -91 1209 -44 
Q 966 3 703 97 
z
M 1959 2075 
Q 2384 2075 2632 2365 
Q 2881 2656 2881 3163 
Q 2881 3666 2632 3958 
Q 2384 4250 1959 4250 
Q 1534 4250 1286 3958 
Q 1038 3666 1038 3163 
Q 1038 2656 1286 2365 
Q 1534 2075 1959 2075 
z
" transform="scale(0.015625)"/>
      </defs>
      <use xlink:href="#DejaVuSans-3bc"/>
      <use xlink:href="#DejaVuSans-20" transform="translate(63.623047 0)"/>
      <use xlink:href="#DejaVuSans-3d" transform="translate(95.410156 0)"/>
      <use xlink:href="#DejaVuSans-20" transform="translate(179.199219 0)"/>
      <use xlink:href="#DejaVuSans-31" transform="translate(210.986328 0)"/>
      <use xlink:href="#DejaVuSans-2e" transform="translate(274.609375 0)"/>
      <use xlink:href="#DejaVuSans-32" transform="translate(306.396484 0)"/>
      <use xlink:href="#DejaVuSans-39" transform="translate(370.019531 0)"/>
     </g>
    </g>
    <g id="line2d_57">
     <path d="M 340.309375 94.294687 
L 350.309375 94.294687 
L 360.309375 94.294687 
" style="fill: none; stroke: #2ca02c; stroke-width: 1.5; stroke-linecap: square"/>
    </g>
    <g id="text_18">
     <!--  = 1.67 -->
     <g transform="translate(368.309375 97.794687) scale(0.1 -0.1)">
      <defs>
       <path id="DejaVuSans-37" d="M 525 4666 
L 3525 4666 
L 3525 4397 
L 1831 0 
L 1172 0 
L 2766 4134 
L 525 4134 
L 525 4666 
z
" transform="scale(0.015625)"/>
      </defs>
      <use xlink:href="#DejaVuSans-3bc"/>
      <use xlink:href="#DejaVuSans-20" transform="translate(63.623047 0)"/>
      <use xlink:href="#DejaVuSans-3d" transform="translate(95.410156 0)"/>
      <use xlink:href="#DejaVuSans-20" transform="translate(179.199219 0)"/>
      <use xlink:href="#DejaVuSans-31" transform="translate(210.986328 0)"/>
      <use xlink:href="#DejaVuSans-2e" transform="translate(274.609375 0)"/>
      <use xlink:href="#DejaVuSans-36" transform="translate(306.396484 0)"/>
      <use xlink:href="#DejaVuSans-37" transform="translate(370.019531 0)"/>
     </g>
    </g>
    <g id="line2d_58">
     <path d="M 340.309375 108.972812 
L 350.309375 108.972812 
L 360.309375 108.972812 
" style="fill: none; stroke: #d62728; stroke-width: 1.5; stroke-linecap: square"/>
    </g>
    <g id="text_19">
     <!--  = 2.15 -->
     <g transform="translate(368.309375 112.472812) scale(0.1 -0.1)">
      <defs>
       <path id="DejaVuSans-35" d="M 691 4666 
L 3169 4666 
L 3169 4134 
L 1269 4134 
L 1269 2991 
Q 1406 3038 1543 3061 
Q 1681 3084 1819 3084 
Q 2600 3084 3056 2656 
Q 3513 2228 3513 1497 
Q 3513 744 3044 326 
Q 2575 -91 1722 -91 
Q 1428 -91 1123 -41 
Q 819 9 494 109 
L 494 744 
Q 775 591 1075 516 
Q 1375 441 1709 441 
Q 2250 441 2565 725 
Q 2881 1009 2881 1497 
Q 2881 1984 2565 2268 
Q 2250 2553 1709 2553 
Q 1456 2553 1204 2497 
Q 953 2441 691 2322 
L 691 4666 
z
" transform="scale(0.015625)"/>
      </defs>
      <use xlink:href="#DejaVuSans-3bc"/>
      <use xlink:href="#DejaVuSans-20" transform="translate(63.623047 0)"/>
      <use xlink:href="#DejaVuSans-3d" transform="translate(95.410156 0)"/>
      <use xlink:href="#DejaVuSans-20" transform="translate(179.199219 0)"/>
      <use xlink:href="#DejaVuSans-32" transform="translate(210.986328 0)"/>
      <use xlink:href="#DejaVuSans-2e" transform="translate(274.609375 0)"/>
      <use xlink:href="#DejaVuSans-31" transform="translate(306.396484 0)"/>
      <use xlink:href="#DejaVuSans-35" transform="translate(370.019531 0)"/>
     </g>
    </g>
    <g id="line2d_59">
     <path d="M 340.309375 123.650937 
L 350.309375 123.650937 
L 360.309375 123.650937 
" style="fill: none; stroke: #9467bd; stroke-width: 1.5; stroke-linecap: square"/>
    </g>
    <g id="text_20">
     <!--  = 2.78 -->
     <g transform="translate(368.309375 127.150937) scale(0.1 -0.1)">
      <use xlink:href="#DejaVuSans-3bc"/>
      <use xlink:href="#DejaVuSans-20" transform="translate(63.623047 0)"/>
      <use xlink:href="#DejaVuSans-3d" transform="translate(95.410156 0)"/>
      <use xlink:href="#DejaVuSans-20" transform="translate(179.199219 0)"/>
      <use xlink:href="#DejaVuSans-32" transform="translate(210.986328 0)"/>
      <use xlink:href="#DejaVuSans-2e" transform="translate(274.609375 0)"/>
      <use xlink:href="#DejaVuSans-37" transform="translate(306.396484 0)"/>
      <use xlink:href="#DejaVuSans-38" transform="translate(370.019531 0)"/>
     </g>
    </g>
    <g id="line2d_60">
     <path d="M 431.673437 64.938437 
L 441.673437 64.938437 
L 451.673437 64.938437 
" style="fill: none; stroke: #8c564b; stroke-width: 1.5; stroke-linecap: square"/>
    </g>
    <g id="text_21">
     <!--  = 3.59 -->
     <g transform="translate(459.673437 68.438437) scale(0.1 -0.1)">
      <defs>
       <path id="DejaVuSans-33" d="M 2597 2516 
Q 3050 2419 3304 2112 
Q 3559 1806 3559 1356 
Q 3559 666 3084 287 
Q 2609 -91 1734 -91 
Q 1441 -91 1130 -33 
Q 819 25 488 141 
L 488 750 
Q 750 597 1062 519 
Q 1375 441 1716 441 
Q 2309 441 2620 675 
Q 2931 909 2931 1356 
Q 2931 1769 2642 2001 
Q 2353 2234 1838 2234 
L 1294 2234 
L 1294 2753 
L 1863 2753 
Q 2328 2753 2575 2939 
Q 2822 3125 2822 3475 
Q 2822 3834 2567 4026 
Q 2313 4219 1838 4219 
Q 1578 4219 1281 4162 
Q 984 4106 628 3988 
L 628 4550 
Q 988 4650 1302 4700 
Q 1616 4750 1894 4750 
Q 2613 4750 3031 4423 
Q 3450 4097 3450 3541 
Q 3450 3153 3228 2886 
Q 3006 2619 2597 2516 
z
" transform="scale(0.015625)"/>
      </defs>
      <use xlink:href="#DejaVuSans-3bc"/>
      <use xlink:href="#DejaVuSans-20" transform="translate(63.623047 0)"/>
      <use xlink:href="#DejaVuSans-3d" transform="translate(95.410156 0)"/>
      <use xlink:href="#DejaVuSans-20" transform="translate(179.199219 0)"/>
      <use xlink:href="#DejaVuSans-33" transform="translate(210.986328 0)"/>
      <use xlink:href="#DejaVuSans-2e" transform="translate(274.609375 0)"/>
      <use xlink:href="#DejaVuSans-35" transform="translate(306.396484 0)"/>
      <use xlink:href="#DejaVuSans-39" transform="translate(370.019531 0)"/>
     </g>
    </g>
    <g id="line2d_61">
     <path d="M 431.673437 79.616562 
L 441.673437 79.616562 
L 451.673437 79.616562 
" style="fill: none; stroke: #e377c2; stroke-width: 1.5; stroke-linecap: square"/>
    </g>
    <g id="text_22">
     <!--  = 4.64 -->
     <g transform="translate(459.673437 83.116562) scale(0.1 -0.1)">
      <use xlink:href="#DejaVuSans-3bc"/>
      <use xlink:href="#DejaVuSans-20" transform="translate(63.623047 0)"/>
      <use xlink:href="#DejaVuSans-3d" transform="translate(95.410156 0)"/>
      <use xlink:href="#DejaVuSans-20" transform="translate(179.199219 0)"/>
      <use xlink:href="#DejaVuSans-34" transform="translate(210.986328 0)"/>
      <use xlink:href="#DejaVuSans-2e" transform="translate(274.609375 0)"/>
      <use xlink:href="#DejaVuSans-36" transform="translate(306.396484 0)"/>
      <use xlink:href="#DejaVuSans-34" transform="translate(370.019531 0)"/>
     </g>
    </g>
    <g id="line2d_62">
     <path d="M 431.673437 94.294687 
L 441.673437 94.294687 
L 451.673437 94.294687 
" style="fill: none; stroke: #7f7f7f; stroke-width: 1.5; stroke-linecap: square"/>
    </g>
    <g id="text_23">
     <!--  = 5.99 -->
     <g transform="translate(459.673437 97.794687) scale(0.1 -0.1)">
      <use xlink:href="#DejaVuSans-3bc"/>
      <use xlink:href="#DejaVuSans-20" transform="translate(63.623047 0)"/>
      <use xlink:href="#DejaVuSans-3d" transform="translate(95.410156 0)"/>
      <use xlink:href="#DejaVuSans-20" transform="translate(179.199219 0)"/>
      <use xlink:href="#DejaVuSans-35" transform="translate(210.986328 0)"/>
      <use xlink:href="#DejaVuSans-2e" transform="translate(274.609375 0)"/>
      <use xlink:href="#DejaVuSans-39" transform="translate(306.396484 0)"/>
      <use xlink:href="#DejaVuSans-39" transform="translate(370.019531 0)"/>
     </g>
    </g>
    <g id="line2d_63">
     <path d="M 431.673437 108.972812 
L 441.673437 108.972812 
L 451.673437 108.972812 
" style="fill: none; stroke: #bcbd22; stroke-width: 1.5; stroke-linecap: square"/>
    </g>
    <g id="text_24">
     <!--  = 7.74 -->
     <g transform="translate(459.673437 112.472812) scale(0.1 -0.1)">
      <use xlink:href="#DejaVuSans-3bc"/>
      <use xlink:href="#DejaVuSans-20" transform="translate(63.623047 0)"/>
      <use xlink:href="#DejaVuSans-3d" transform="translate(95.410156 0)"/>
      <use xlink:href="#DejaVuSans-20" transform="translate(179.199219 0)"/>
      <use xlink:href="#DejaVuSans-37" transform="translate(210.986328 0)"/>
      <use xlink:href="#DejaVuSans-2e" transform="translate(274.609375 0)"/>
      <use xlink:href="#DejaVuSans-37" transform="translate(306.396484 0)"/>
      <use xlink:href="#DejaVuSans-34" transform="translate(370.019531 0)"/>
     </g>
    </g>
    <g id="line2d_64">
     <path d="M 431.673437 123.650937 
L 441.673437 123.650937 
L 451.673437 123.650937 
" style="fill: none; stroke: #17becf; stroke-width: 1.5; stroke-linecap: square"/>
    </g>
    <g id="text_25">
     <!--  = 10.00 -->
     <g transform="translate(459.673437 127.150937) scale(0.1 -0.1)">
      <use xlink:href="#DejaVuSans-3bc"/>
      <use xlink:href="#DejaVuSans-20" transform="translate(63.623047 0)"/>
      <use xlink:href="#DejaVuSans-3d" transform="translate(95.410156 0)"/>
      <use xlink:href="#DejaVuSans-20" transform="translate(179.199219 0)"/>
      <use xlink:href="#DejaVuSans-31" transform="translate(210.986328 0)"/>
      <use xlink:href="#DejaVuSans-30" transform="translate(274.609375 0)"/>
      <use xlink:href="#DejaVuSans-2e" transform="translate(338.232422 0)"/>
      <use xlink:href="#DejaVuSans-30" transform="translate(370.019531 0)"/>
      <use xlink:href="#DejaVuSans-30" transform="translate(433.642578 0)"/>
     </g>
    </g>
   </g>
  </g>
 </g>
 <defs>
  <clipPath id="pe4709aba7e">
   <rect x="72" y="51.84" width="446.4" height="332.64"/>
  </clipPath>
 </defs>
</svg>
