<?xml version="1.0" encoding="UTF-8" standalone="no"?>
<!DOCTYPE svg PUBLIC "-//W3C//DTD SVG 1.1//EN" "http://www.w3.org/Graphics/SVG/1.1/DTD/svg11.dtd">
<svg width="100%" height="100%" viewBox="0 0 356 356" version="1.1" xmlns="http://www.w3.org/2000/svg" xmlns:xlink="http://www.w3.org/1999/xlink" xml:space="preserve" xmlns:serif="http://www.serif.com/" style="fill-rule:evenodd;clip-rule:evenodd;stroke-linecap:square;stroke-linejoin:round;stroke-miterlimit:1.5;">
    <g>
        <clipPath id="_clip1">
            <rect x="-1.917" y="1.334" width="356" height="356"/>
        </clipPath>
        <g clip-path="url(#_clip1)">
            <rect x="-122" y="-29" width="576" height="431.917" style="fill-rule:nonzero;"/>
        </g>
        <path d="M0.083,355.25L352,355.25L351.999,3.334L0.083,3.334L0.083,355.25Z" style="fill:rgb(128,128,128);fill-rule:nonzero;"/>
        <path d="M35.249,320.084L316.75,320.084L316.749,38.5L35.249,38.5L35.249,320.084Z" style="fill:rgb(0,0,128);fill-rule:nonzero;"/>
        <path d="M72,126L168,72L168,288L132,270L132,138L72,168L72,126Z" style="fill:white;stroke:rgb(129,129,129);stroke-width:6px;"/>
        <path d="M175.999,288L178,72L270,126L270,168L216,138L216,162L240,178L240,216L216,204L216,270L175.999,288Z" style="fill:white;stroke:rgb(129,129,129);stroke-width:6px;"/>
    </g>
</svg>
