<svg xmlns:xlink="http://www.w3.org/1999/xlink" xmlns="http://www.w3.org/2000/svg" viewBox="0.00 0.00 1157.00 156.00" height="156pt" width="1157pt"><g transform="scale(1 1) rotate(0) translate(4 152)" class="graph" id="graph0"><polygon points="-4,4 -4,-152 1153,-152 1153,4 -4,4" stroke="transparent" fill="white"></polygon><g class="node" id="node1"><polygon points="4.5,-111.5 4.5,-147.5 189.5,-147.5 189.5,-111.5 4.5,-111.5" stroke="black" fill="none"></polygon><text font-size="14.00" font-family="Times,serif" y="-125.8" x="16" text-anchor="middle">a</text><polyline points="27.5,-111.5 27.5,-147.5" stroke="black" fill="none"></polyline><text font-size="14.00" font-family="Times,serif" y="-125.8" x="67.5" text-anchor="middle">data 2.0000</text><polyline points="107.5,-111.5 107.5,-147.5" stroke="black" fill="none"></polyline><text font-size="14.00" font-family="Times,serif" y="-125.8" x="148.5" text-anchor="middle">grad 6.0000</text></g><g class="node" id="node9"><ellipse ry="18" rx="27" cy="-101.5" cx="257" stroke="black" fill="none"></ellipse><text font-size="14.00" font-family="Times,serif" y="-97.8" x="257" text-anchor="middle">*</text></g><g class="edge" id="edge5"><path d="M189.91,-113.21C200.76,-111.29 211.28,-109.43 220.61,-107.77" stroke="black" fill="none"></path><polygon points="221.37,-111.19 230.6,-106 220.15,-104.3 221.37,-111.19" stroke="black" fill="black"></polygon></g><g class="node" id="node2"><polygon points="320,-28.5 320,-64.5 516,-64.5 516,-28.5 320,-28.5" stroke="black" fill="none"></polygon><text font-size="14.00" font-family="Times,serif" y="-42.8" x="331.5" text-anchor="middle">c</text><polyline points="343,-28.5 343,-64.5" stroke="black" fill="none"></polyline><text font-size="14.00" font-family="Times,serif" y="-42.8" x="386.5" text-anchor="middle">data 10.0000</text><polyline points="430,-28.5 430,-64.5" stroke="black" fill="none"></polyline><text font-size="14.00" font-family="Times,serif" y="-42.8" x="473" text-anchor="middle">grad -2.0000</text></g><g class="node" id="node7"><ellipse ry="18" rx="27" cy="-73.5" cx="579" stroke="black" fill="none"></ellipse><text font-size="14.00" font-family="Times,serif" y="-69.8" x="579" text-anchor="middle">+</text></g><g class="edge" id="edge8"><path d="M516.07,-62.98C525.42,-64.57 534.43,-66.1 542.55,-67.48" stroke="black" fill="none"></path><polygon points="542.21,-70.97 552.65,-69.2 543.38,-64.07 542.21,-70.97" stroke="black" fill="black"></polygon></g><g class="node" id="node3"><polygon points="0,-56.5 0,-92.5 194,-92.5 194,-56.5 0,-56.5" stroke="black" fill="none"></polygon><text font-size="14.00" font-family="Times,serif" y="-70.8" x="11.5" text-anchor="middle">b</text><polyline points="23,-56.5 23,-92.5" stroke="black" fill="none"></polyline><text font-size="14.00" font-family="Times,serif" y="-70.8" x="65.5" text-anchor="middle">data -3.0000</text><polyline points="108,-56.5 108,-92.5" stroke="black" fill="none"></polyline><text font-size="14.00" font-family="Times,serif" y="-70.8" x="151" text-anchor="middle">grad -4.0000</text></g><g class="edge" id="edge6"><path d="M194.01,-90.91C203.35,-92.5 212.37,-94.04 220.49,-95.43" stroke="black" fill="none"></path><polygon points="220.16,-98.93 230.6,-97.16 221.34,-92.03 220.16,-98.93" stroke="black" fill="black"></polygon></g><g class="node" id="node4"><polygon points="957,-27.5 957,-63.5 1149,-63.5 1149,-27.5 957,-27.5" stroke="black" fill="none"></polygon><text font-size="14.00" font-family="Times,serif" y="-41.8" x="969.5" text-anchor="middle">L</text><polyline points="982,-27.5 982,-63.5" stroke="black" fill="none"></polyline><text font-size="14.00" font-family="Times,serif" y="-41.8" x="1024.5" text-anchor="middle">data -8.0000</text><polyline points="1067,-27.5 1067,-63.5" stroke="black" fill="none"></polyline><text font-size="14.00" font-family="Times,serif" y="-41.8" x="1108" text-anchor="middle">grad 1.0000</text></g><g class="node" id="node5"><ellipse ry="18" rx="27" cy="-45.5" cx="894" stroke="black" fill="none"></ellipse><text font-size="14.00" font-family="Times,serif" y="-41.8" x="894" text-anchor="middle">*</text></g><g class="edge" id="edge1"><path d="M921.28,-45.5C928.78,-45.5 937.44,-45.5 946.67,-45.5" stroke="black" fill="none"></path><polygon points="946.87,-49 956.87,-45.5 946.87,-42 946.87,-49" stroke="black" fill="black"></polygon></g><g class="node" id="node6"><polygon points="642,-55.5 642,-91.5 831,-91.5 831,-55.5 642,-55.5" stroke="black" fill="none"></polygon><text font-size="14.00" font-family="Times,serif" y="-69.8" x="653.5" text-anchor="middle">d</text><polyline points="665,-55.5 665,-91.5" stroke="black" fill="none"></polyline><text font-size="14.00" font-family="Times,serif" y="-69.8" x="705" text-anchor="middle">data 4.0000</text><polyline points="745,-55.5 745,-91.5" stroke="black" fill="none"></polyline><text font-size="14.00" font-family="Times,serif" y="-69.8" x="788" text-anchor="middle">grad -2.0000</text></g><g class="edge" id="edge7"><path d="M831.1,-56.65C840.4,-54.97 849.38,-53.35 857.49,-51.89" stroke="black" fill="none"></path><polygon points="858.37,-55.29 867.59,-50.07 857.13,-48.4 858.37,-55.29" stroke="black" fill="black"></polygon></g><g class="edge" id="edge2"><path d="M606.03,-73.5C613.66,-73.5 622.52,-73.5 631.94,-73.5" stroke="black" fill="none"></path><polygon points="631.94,-77 641.94,-73.5 631.94,-70 631.94,-77" stroke="black" fill="black"></polygon></g><g class="node" id="node8"><polygon points="321,-83.5 321,-119.5 515,-119.5 515,-83.5 321,-83.5" stroke="black" fill="none"></polygon><text font-size="14.00" font-family="Times,serif" y="-97.8" x="332.5" text-anchor="middle">e</text><polyline points="344,-83.5 344,-119.5" stroke="black" fill="none"></polyline><text font-size="14.00" font-family="Times,serif" y="-97.8" x="386.5" text-anchor="middle">data -6.0000</text><polyline points="429,-83.5 429,-119.5" stroke="black" fill="none"></polyline><text font-size="14.00" font-family="Times,serif" y="-97.8" x="472" text-anchor="middle">grad -2.0000</text></g><g class="edge" id="edge9"><path d="M515.16,-84.57C524.82,-82.87 534.13,-81.23 542.49,-79.75" stroke="black" fill="none"></path><polygon points="543.3,-83.17 552.54,-77.98 542.08,-76.27 543.3,-83.17" stroke="black" fill="black"></polygon></g><g class="edge" id="edge3"><path d="M284.26,-101.5C292.05,-101.5 301.1,-101.5 310.75,-101.5" stroke="black" fill="none"></path><polygon points="310.99,-105 320.99,-101.5 310.99,-98 310.99,-105" stroke="black" fill="black"></polygon></g><g class="node" id="node10"><polygon points="642.5,-0.5 642.5,-36.5 830.5,-36.5 830.5,-0.5 642.5,-0.5" stroke="black" fill="none"></polygon><text font-size="14.00" font-family="Times,serif" y="-14.8" x="653" text-anchor="middle">f</text><polyline points="663.5,-0.5 663.5,-36.5" stroke="black" fill="none"></polyline><text font-size="14.00" font-family="Times,serif" y="-14.8" x="706" text-anchor="middle">data -2.0000</text><polyline points="748.5,-0.5 748.5,-36.5" stroke="black" fill="none"></polyline><text font-size="14.00" font-family="Times,serif" y="-14.8" x="789.5" text-anchor="middle">grad 4.0000</text></g><g class="edge" id="edge4"><path d="M830.65,-34.67C840.2,-36.33 849.43,-37.93 857.72,-39.37" stroke="black" fill="none"></path><polygon points="857.24,-42.84 867.69,-41.11 858.44,-35.95 857.24,-42.84" stroke="black" fill="black"></polygon></g></g></svg>