<svg id="Capa_1" enable-background="new 0 0 512 512" height="512" viewBox="0 0 512 512" width="512" xmlns="http://www.w3.org/2000/svg"><g><path d="m361.5 497c0 8.284 6.716 15 15 15s15-6.716 15-15c0-104.952-43.557-166.533-93.407-219.478-3.441 3.463-6.87 6.893-10.274 10.297-3.677 3.677-7.322 7.323-10.925 10.952 5.012 5.336 9.925 10.732 14.7 16.229h-71.19c14.486-16.675 30.224-32.417 46.201-48.394 61.403-61.401 124.895-124.893 124.895-251.606 0-8.284-6.716-15-15-15s-15 6.716-15 15c0 5.159-.119 10.196-.344 15.125h-210.312c-.225-4.929-.344-9.966-.344-15.125 0-8.284-6.716-15-15-15s-15 6.716-15 15c0 104.952 43.557 166.533 93.407 219.478 3.441-3.463 6.87-6.893 10.274-10.297 3.677-3.677 7.322-7.323 10.925-10.952-4.852-5.166-9.612-10.388-14.244-15.704h70.278c-14.36 16.481-29.936 32.059-45.746 47.868-61.402 61.402-124.894 124.894-124.894 251.607 0 8.284 6.716 15 15 15s15-6.716 15-15c0-4.977.114-9.837.323-14.6h210.354c.209 4.763.323 9.623.323 14.6zm-46.293-152c8.57 12.242 16.296 25.224 22.878 39.294h-164.169c6.582-14.07 14.307-27.052 22.878-39.294zm43.067-284.875c-2.036 13.574-4.991 26.221-8.723 38.106h-187.102c-3.732-11.885-6.688-24.533-8.723-38.106zm-161.108 107.4c-8.611-12.245-16.381-25.224-23.004-39.294h163.676c-6.623 14.07-14.393 27.049-23.004 39.294zm-43.517 284.875c2.008-13.573 4.936-26.22 8.638-38.106h187.426c3.702 11.886 6.63 24.533 8.638 38.106z"/></g></svg>