<svg width="718" height="643" xmlns="http://www.w3.org/2000/svg" xmlns:xlink="http://www.w3.org/1999/xlink" overflow="hidden"><defs><clipPath id="clip0"><rect x="0" y="0" width="718" height="643"/></clipPath></defs><g clip-path="url(#clip0)"><rect x="0" y="0" width="718" height="643.483" fill="#FFFFFF" fill-opacity="0"/><path d="M15.5 241.568 27.8966 241.256 35.472 241.433 42.3589 241.965 49.9345 242.958 67.8405 245.591 72.6613 245.777 76.7934 245.549 80.9256 244.9 85.0577 243.794 89.1898 242.239 94.0107 239.949 109.162 232.188 112.605 231.142 115.36 230.73 118.115 230.77 120.181 231.134 122.247 231.808 124.313 232.805 127.068 234.644 129.822 237.058 132.577 240.017 136.021 244.376 140.842 251.351 149.106 263.527 152.549 267.694 155.304 270.243 157.37 271.569 159.436 272.311 160.814 272.447 162.191 272.275 163.568 271.783 164.946 270.956 167.012 269.072 169.078 266.403 171.144 262.952 173.21 258.743 175.965 252.029 179.408 242.102 183.54 228.567 193.181 196.305 195.936 188.738 198.002 184.032 200.068 180.344 201.446 178.528 202.823 177.275 204.201 176.62 205.578 176.597 206.956 177.231 208.333 178.544 209.711 180.548 211.088 183.252 213.154 188.618 215.22 195.524 217.287 203.897 220.042 217.151 223.485 236.536 228.304 267.12 235.88 315.442 239.324 333.936 242.079 345.775 244.145 352.486 245.523 355.791 246.9 358.084 248.277 359.315 248.966 359.518 249.655 359.438 250.344 359.072 251.721 357.473 253.099 354.701 254.476 350.751 255.853 345.631 257.92 335.8 259.984 323.498 262.739 303.573 265.494 280.177 269.626 240.31 280.646 130.357 283.401 108.14 285.467 94.2275 287.533 83.1041 288.911 77.4043 290.288 73.1762 291.666 70.4889 292.352 69.7406 293.041 69.3971 293.73 69.4624 294.418 69.9401 295.107 70.8327 296.485 73.8663 297.862 78.5613 299.239 84.8983 301.306 97.3987 303.372 113.314 306.127 139.355 308.882 170.089 313.014 222.558 324.034 367.215 326.787 396.643 329.542 420.728 331.608 434.654 332.985 441.765 334.363 447.04 335.74 450.413 336.429 451.371 337.118 451.839 337.806 451.813 338.495 451.293 339.184 450.279 340.561 446.769 341.939 441.311 343.316 433.946 345.382 419.474 347.449 401.155 350.204 371.425 353.647 327.364 358.468 257.651 366.042 147.683 369.486 104.988 372.241 76.6973 374.307 59.6221 376.373 46.5 377.751 40.0821 379.128 35.594 380.506 33.07 381.194 32.5499 381.883 32.5244 382.572 32.9924 383.261 33.951 384.638 37.3242 386.016 42.5985 387.393 49.7097 389.459 63.6351 391.525 81.1545 394.278 109.356 397.722 150.684 403.232 224.483 409.43 305.98 412.874 345.008 415.629 371.049 417.695 386.964 419.761 399.465 421.139 405.802 422.516 410.497 423.894 413.53 424.582 414.423 425.271 414.901 425.96 414.967 426.647 414.622 427.335 413.875 428.713 411.187 430.09 406.959 431.468 401.26 433.534 390.136 435.6 376.223 438.355 354.006 441.799 321.81 449.375 244.054 453.507 204.187 456.951 175.458 459.706 156.5 461.77 145.005 463.836 136.027 465.213 131.49 466.591 128.129 467.968 125.945 469.346 124.925 470.035 124.846 470.723 125.048 471.412 125.527 472.79 127.296 474.167 130.103 475.544 133.889 477.611 141.259 479.677 150.427 482.432 164.953 485.875 185.779 498.271 263.562 501.025 277.366 503.78 288.84 505.847 295.745 507.913 301.111 509.979 304.904 511.356 306.563 512.734 307.533 514.111 307.835 515.489 307.493 516.866 306.535 518.244 304.996 519.621 302.912 521.687 298.867 523.754 293.859 526.508 285.98 530.639 272.455 539.592 242.261 543.036 232.335 545.791 225.62 548.546 220.174 550.612 216.983 552.678 214.578 554.744 212.952 556.122 212.293 557.499 211.962 558.877 211.946 560.254 212.229 562.318 213.174 564.385 214.68 566.451 216.67 569.206 219.932 572.649 224.703 585.047 242.683 588.49 246.614 591.245 249.17 594 251.155 596.753 252.555 599.508 253.384 602.263 253.675 605.018 253.479 607.773 252.866 611.216 251.625 615.349 249.652 630.499 241.837 634.631 240.355 638.763 239.324 642.896 238.748 647.028 238.587 651.849 238.83 658.048 239.608 678.019 242.534 684.906 242.991 692.482 243.102 702.811 242.823 703.5 242.795 703.5 242.795" stroke="#91BEE7" stroke-width="10.7088" stroke-linecap="square" stroke-linejoin="round" stroke-miterlimit="10" fill="none" fill-rule="evenodd"/><text fill="#215F9A" font-family="Aptos,Aptos_MSFontService,sans-serif" font-weight="700" font-size="107" transform="matrix(1 0 0 1.00075 219.203 573)">TUNA</text><path d="M281.81 324.546 291.794 264.235 344.938 335.011Z" stroke="#215F9A" stroke-width="10.6644" stroke-miterlimit="8" fill="#F7F7F7" fill-rule="evenodd"/><path d="M206.5 250.188C206.5 212.328 237.169 181.636 275 181.636L360 181.636C397.832 181.636 428.5 212.328 428.5 250.188L428.5 250.188C428.5 288.048 397.832 318.739 360 318.739L275 318.739C237.169 318.739 206.5 288.048 206.5 250.188Z" stroke="#215F9A" stroke-width="10.6642" stroke-miterlimit="8" fill="#F7F7F7" fill-rule="evenodd"/><path d="M281.5 181.636 299.3 141.606 370.5 141.606 352.7 181.636Z" stroke="#215F9A" stroke-width="10.6642" stroke-miterlimit="8" fill="#F7F7F7" fill-rule="evenodd"/><path d="M457.857 179.635 505.5 179.635C497.12 179.635 463.49 210.78 463.49 249.187 463.49 287.594 497.12 318.739 505.5 318.739L456.247 317.849C447.866 317.849 414.245 272.223 414.509 249.187 414.773 226.151 449.477 179.635 457.857 179.635Z" stroke="#215F9A" stroke-width="10.6642" stroke-miterlimit="8" fill="#F7F7F7" fill-rule="evenodd"/><path d="M252.5 225.169C252.5 222.129 254.962 219.665 258 219.665 261.038 219.665 263.5 222.129 263.5 225.169 263.5 228.209 261.038 230.673 258 230.673 254.962 230.673 252.5 228.209 252.5 225.169Z" stroke="#215F9A" stroke-width="10.6642" stroke-miterlimit="8" fill="#215F9A" fill-rule="evenodd"/><path d="M374.391 245.98C380.987 258.732 380.904 273.911 374.169 286.59L335.603 266.073Z" fill="#F7F7F7" fill-rule="evenodd"/><path d="M374.391 245.98C380.987 258.732 380.904 273.911 374.169 286.59" stroke="#215F9A" stroke-width="10.666" stroke-miterlimit="8" fill="none" fill-rule="evenodd"/><rect x="386" y="222.167" width="70" height="54.0405" fill="#F7F7F7"/><path d="M267.587 336.66 280.366 270.06 324.417 347.58Z" stroke="#215F9A" stroke-width="10.6645" stroke-miterlimit="8" fill="#F7F7F7" fill-rule="evenodd"/><path d="M352.768 245.98C359.364 258.732 359.281 273.911 352.546 286.59L313.98 266.073Z" fill="#F7F7F7" fill-rule="evenodd"/><path d="M352.768 245.98C359.364 258.732 359.281 273.911 352.546 286.59" stroke="#215F9A" stroke-width="10.666" stroke-miterlimit="8" fill="none" fill-rule="evenodd"/><rect x="261" y="251.188" width="48" height="52.039" fill="#F7F7F7"/></g></svg>