<?xml version="1.0" standalone="no"?>
<!DOCTYPE svg PUBLIC "-//W3C//DTD SVG 20010904//EN"
 "http://www.w3.org/TR/2001/REC-SVG-20010904/DTD/svg10.dtd">
<svg version="1.0" xmlns="http://www.w3.org/2000/svg"
 width="438.000000pt" height="436.000000pt" viewBox="0 0 438.000000 436.000000"
 preserveAspectRatio="xMidYMid meet">

<g transform="translate(0.000000,436.000000) scale(0.100000,-0.100000)"
fill="#000000" stroke="none">
<path d="M966 3296 c-21 -8 -54 -29 -72 -47 -77 -74 -154 -368 -154 -585 0
-50 -7 -76 -35 -136 -22 -46 -38 -99 -43 -139 -7 -53 -15 -74 -49 -119 -64
-87 -76 -117 -76 -190 1 -74 1 -74 -71 -174 -65 -90 -108 -192 -131 -306 -22
-108 -15 -168 26 -234 l31 -50 -16 -81 c-37 -188 -30 -338 21 -432 20 -39 23
-55 18 -91 -11 -77 4 -72 -216 -72 l-199 0 0 -70 0 -70 1828 0 c1006 0 1991 3
2190 7 l362 6 0 64 0 63 -169 0 -170 0 -12 55 c-12 53 -11 58 15 109 48 96 55
228 20 424 l-15 84 31 48 c77 121 34 342 -108 549 -65 95 -66 97 -67 166 -1
79 -19 124 -87 212 -32 42 -40 62 -45 110 -3 37 -17 82 -37 123 -30 59 -33 76
-39 192 -7 145 -26 244 -69 376 -48 145 -101 204 -198 218 -82 13 -192 -21
-423 -129 -105 -49 -122 -54 -155 -46 -20 5 -80 9 -132 9 -54 0 -116 7 -144
15 -78 24 -195 19 -282 -11 l-73 -25 -81 25 c-97 31 -213 35 -287 10 -35 -12
-65 -15 -112 -10 -35 4 -95 2 -135 -5 l-71 -11 -107 51 c-232 111 -379 148
-462 117z m161 -157 c243 -86 442 -201 589 -341 45 -43 88 -78 96 -78 24 0 41
27 34 55 -8 32 -117 148 -181 192 l-50 35 70 -5 c92 -5 184 -45 230 -100 28
-32 42 -40 75 -43 39 -4 41 -3 35 18 -13 44 -41 83 -83 115 l-42 32 36 7 c75
14 196 -29 253 -90 l24 -25 41 33 c80 65 173 95 250 81 l35 -7 -41 -32 c-49
-37 -75 -71 -84 -109 -6 -28 -6 -28 36 -21 32 5 51 17 77 45 51 57 129 91 216
96 l72 4 -30 -23 c-62 -47 -184 -176 -191 -202 -7 -29 9 -56 34 -56 8 0 51 35
96 78 146 140 349 257 595 343 l94 33 17 -21 c25 -31 77 -196 96 -304 11 -66
15 -128 11 -207 -2 -67 0 -115 5 -118 12 -8 88 -124 88 -135 0 -5 -30 14 -66
42 -90 68 -251 144 -346 163 -148 30 -299 16 -321 -31 -18 -41 1 -48 141 -49
141 0 211 -18 355 -90 133 -67 272 -185 341 -289 35 -54 33 -60 -14 -30 -22
14 -43 25 -48 25 -5 0 -19 12 -33 26 -38 41 -139 110 -217 149 -103 51 -186
68 -309 63 -90 -3 -106 -6 -125 -26 -18 -18 -20 -26 -12 -40 9 -14 33 -18 135
-23 86 -5 141 -13 179 -27 126 -46 217 -99 201 -115 -6 -6 -11 -21 -11 -33 0
-17 9 -25 38 -35 79 -25 177 -83 227 -132 138 -139 216 -301 215 -447 l-1 -55
-28 60 c-35 75 -119 194 -174 247 -23 22 -71 60 -107 83 -116 76 -153 88 -178
63 -24 -24 -13 -48 34 -76 65 -39 159 -122 216 -194 130 -161 218 -434 205
-636 -7 -127 -13 -135 -51 -70 -35 61 -175 208 -199 208 -17 0 -47 -26 -47
-41 0 -5 29 -41 64 -78 68 -73 140 -199 170 -300 9 -30 16 -56 16 -58 0 -2
-21 -3 -46 -3 -37 0 -50 5 -66 25 -46 59 -275 234 -408 313 -232 137 -425 218
-503 210 -28 -3 -32 -6 -32 -33 0 -28 4 -31 65 -52 166 -57 294 -144 392 -265
49 -61 118 -173 118 -192 0 -3 -45 -6 -100 -6 l-100 0 -35 48 c-32 45 -194
194 -254 235 -69 46 -157 85 -174 75 -33 -18 -20 -56 30 -91 101 -70 161 -118
238 -191 l80 -75 -185 -1 -186 0 -50 58 c-63 70 -115 102 -138 83 -25 -21 -19
-41 25 -93 l40 -48 -370 0 c-204 0 -371 2 -371 4 0 3 18 26 40 51 42 49 47 64
28 83 -24 24 -50 11 -124 -63 l-75 -75 -182 0 -182 1 80 76 c44 42 116 103
160 135 104 77 125 96 125 119 0 52 -65 34 -190 -52 -77 -52 -223 -186 -260
-236 l-30 -43 -100 0 c-55 0 -100 2 -100 5 0 21 69 135 120 199 90 113 189
182 364 251 86 34 108 53 87 79 -18 22 -52 20 -145 -9 -117 -36 -301 -132
-491 -257 -83 -54 -315 -245 -315 -259 0 -5 -22 -9 -50 -9 -27 0 -50 1 -50 3
0 2 7 28 16 58 30 101 102 227 171 301 61 65 64 70 50 91 -8 12 -22 24 -31 25
-23 5 -163 -138 -202 -206 -38 -65 -44 -57 -51 69 -10 159 32 333 125 513 53
104 187 253 277 307 58 35 74 61 55 84 -21 26 -55 16 -146 -41 -138 -86 -219
-174 -301 -327 l-44 -82 4 80 c7 112 48 216 133 328 37 49 88 105 113 125 41
32 152 90 204 106 24 7 33 35 19 57 -10 15 -7 21 16 38 32 23 128 67 192 89
25 8 101 18 170 21 l125 6 3 26 c5 42 -20 53 -132 57 -165 6 -301 -40 -450
-153 -85 -64 -196 -137 -196 -129 0 19 83 124 138 175 116 107 231 175 379
226 68 23 94 27 207 27 111 1 130 3 140 19 28 44 -40 75 -169 76 -94 1 -217
-26 -309 -68 -69 -31 -196 -110 -233 -144 -13 -11 -23 -16 -23 -11 0 16 57
108 78 127 19 17 20 27 15 130 -6 132 12 253 58 392 31 92 53 135 68 135 5 0
49 -14 98 -31z m-125 -2360 c-17 -24 -40 -65 -53 -91 l-23 -48 -58 0 c-32 0
-58 4 -58 8 0 17 209 186 218 177 2 -1 -10 -22 -26 -46z m2503 -17 c33 -25 75
-63 94 -84 l33 -38 -60 0 c-57 0 -60 1 -72 30 -7 17 -28 56 -46 87 -19 30 -34
57 -34 60 0 7 21 -7 85 -55z"/>
<path d="M1056 2977 c-38 -129 -72 -377 -52 -377 4 0 37 18 74 40 173 105 363
117 548 35 30 -13 54 -20 54 -14 0 5 -27 36 -60 69 -93 93 -270 200 -437 264
-51 20 -97 36 -102 36 -5 0 -17 -24 -25 -53z"/>
<path d="M3250 2992 c-212 -84 -431 -230 -479 -320 -11 -21 -10 -20 45 4 191
85 398 67 568 -49 21 -15 43 -27 49 -27 13 0 2 153 -18 251 -22 104 -47 179
-59 178 -6 0 -54 -17 -106 -37z"/>
<path d="M1766 2404 c-42 -41 14 -237 90 -320 29 -30 39 -30 60 1 15 23 14 27
-19 82 -38 63 -67 148 -67 198 0 50 -33 71 -64 39z"/>
<path d="M2622 2408 c-5 -7 -15 -45 -22 -84 -8 -51 -23 -92 -51 -140 -41 -70
-45 -108 -13 -121 49 -19 154 190 154 308 0 21 -26 49 -44 49 -8 0 -18 -6 -24
-12z"/>
<path d="M1555 2009 c-79 -16 -167 -64 -239 -129 -56 -50 -72 -60 -103 -60
-44 0 -73 -23 -66 -51 13 -48 97 -44 215 10 37 17 69 31 72 31 2 0 7 -17 11
-37 10 -54 49 -127 85 -156 32 -28 115 -57 159 -57 51 0 134 29 173 60 39 32
43 31 50 -15 4 -22 35 -30 58 -15 11 7 15 29 15 89 0 73 -3 85 -41 157 -44 87
-104 142 -175 163 -56 17 -156 22 -214 10z m154 -125 c28 -36 26 -73 -4 -107
-59 -62 -165 0 -134 80 14 37 38 52 81 53 28 0 41 -6 57 -26z"/>
<path d="M2707 2010 c-139 -24 -246 -159 -255 -325 -5 -91 7 -113 53 -101 21
5 25 12 25 42 l0 36 39 -35 c40 -36 120 -67 171 -67 40 0 130 29 162 53 36 27
66 77 87 145 l16 52 65 -31 c90 -42 164 -55 196 -34 47 30 24 75 -38 75 -31 0
-48 9 -104 59 -81 72 -167 116 -254 130 -73 12 -94 12 -163 1z m89 -141 c20
-40 18 -57 -15 -90 -33 -32 -65 -37 -99 -13 -63 44 -42 124 38 147 24 7 60
-15 76 -44z"/>
<path d="M2093 1515 c-42 -18 -61 -55 -45 -90 7 -15 20 -25 33 -25 87 0 125
-148 67 -263 -45 -91 -133 -156 -240 -178 -75 -16 -90 -26 -86 -56 5 -43 28
-50 105 -30 104 27 172 65 235 129 l57 58 52 -55 c61 -64 161 -118 256 -136
66 -14 93 -5 93 30 0 31 -18 43 -80 58 -121 28 -203 86 -250 179 -20 39 -25
64 -25 121 0 83 20 121 74 139 74 24 80 82 11 116 -45 23 -208 24 -257 3z"/>
<path d="M1540 1403 c-121 -17 -205 -48 -284 -105 -48 -35 -59 -52 -51 -78 11
-36 41 -33 105 11 62 42 188 89 239 89 41 0 79 33 66 56 -13 21 -42 31 -75 27z"/>
<path d="M2825 1381 c-9 -31 5 -50 43 -56 106 -17 217 -60 281 -109 44 -33 56
-33 78 0 17 27 17 27 -26 65 -79 70 -207 118 -318 119 -42 0 -53 -4 -58 -19z"/>
<path d="M1780 1250 c-22 -42 19 -92 59 -71 25 14 32 45 14 70 -18 27 -59 27
-73 1z"/>
<path d="M2581 1251 c-16 -29 -14 -46 8 -65 26 -23 59 -13 67 21 9 34 -6 57
-39 61 -18 2 -29 -3 -36 -17z"/>
</g>
</svg>
